<svg width="1000" height="1000" viewBox="0 0 1000 1000" fill="none" xmlns="http://www.w3.org/2000/svg">
<path d="M995.5 641V654.58C995.513 674.846 988.002 694.394 974.422 709.437C960.843 724.48 942.162 733.946 922 736C919.451 736.25 916.86 736.39 914.24 736.4H913.79C907.583 736.401 901.436 737.625 895.702 740.002C889.967 742.379 884.757 745.862 880.368 750.252C875.98 754.643 872.499 759.854 870.125 765.59C867.751 771.325 866.529 777.472 866.531 783.68V854.51C866.533 867.581 862.545 880.341 855.098 891.083C847.651 901.825 837.102 910.037 824.86 914.62C822.327 915.581 819.731 916.369 817.091 916.98C812.258 918.125 807.307 918.699 802.341 918.69H93.0005C44.1105 918.69 4.48047 886.77 4.48047 823.23C4.48242 819.583 4.70281 815.94 5.14047 812.32C7.79617 790.887 18.1923 771.163 34.373 756.859C50.5537 742.555 71.4037 734.657 93.0005 734.65H116.41C122.62 734.654 128.769 733.434 134.506 731.06C140.243 728.686 145.457 725.204 149.848 720.814C154.239 716.424 157.721 711.212 160.097 705.475C162.472 699.738 163.693 693.589 163.69 687.38V669.89C163.69 647.61 170.417 625.849 182.991 607.456C195.565 589.064 213.4 574.897 234.16 566.81C236.7 565.81 239.29 564.9 241.93 564.12C250.817 561.395 260.014 559.809 269.3 559.4C270.95 559.33 272.62 559.29 274.3 559.29C286.837 559.29 298.861 554.31 307.725 545.445C316.59 536.58 321.57 524.557 321.57 512.02C321.57 499.483 316.59 487.46 307.725 478.595C298.861 469.73 286.837 464.75 274.3 464.75H153.18C150.36 464.75 147.56 464.63 144.8 464.4C142.04 464.17 139.59 463.87 137.03 463.4C113.741 459.562 92.5718 447.577 77.2985 429.581C62.0252 411.585 53.6409 388.749 53.6409 365.145C53.6409 341.541 62.0252 318.705 77.2985 300.709C92.5718 282.713 113.741 270.728 137.03 266.89C139.59 266.47 142.17 266.15 144.8 265.95C147.43 265.75 150.35 265.59 153.18 265.59H304.86C311.07 265.593 317.218 264.371 322.955 261.996C328.692 259.621 333.905 256.138 338.295 251.747C342.685 247.356 346.166 242.143 348.54 236.406C350.914 230.668 352.134 224.519 352.13 218.31C352.136 204.85 357.16 191.876 366.221 181.923C375.283 171.97 387.73 165.754 401.13 164.49C402.822 164.324 404.521 164.244 406.22 164.25H420.3C423.046 164.253 425.786 164.015 428.49 163.54C431.13 163.076 433.726 162.391 436.25 161.49C438.47 160.706 440.623 159.746 442.69 158.62C452.061 153.554 459.457 145.485 463.69 135.71C465.952 130.487 467.243 124.896 467.5 119.21C467.5 118.47 467.56 117.72 467.56 116.97V110.17C467.566 97.6348 472.548 85.6146 481.411 76.7509C490.275 67.8872 502.295 62.9053 514.83 62.9H788.66C798.907 62.8847 808.878 66.2132 817.06 72.38C819.917 74.532 822.523 76.9974 824.831 79.73L824.891 79.81C832.028 88.3133 835.924 99.0685 835.891 110.17V117V119.24C835.305 131.371 830.073 142.812 821.28 151.19C812.486 159.568 800.806 164.241 788.66 164.24H767.781C761.572 164.235 755.423 165.453 749.686 167.826C743.948 170.199 738.735 173.68 734.344 178.069C729.953 182.458 726.47 187.67 724.094 193.407C721.719 199.143 720.498 205.291 720.5 211.5V218.3C720.481 224.88 721.844 231.39 724.5 237.41C725.407 239.458 726.457 241.439 727.641 243.34C731.881 250.152 737.789 255.769 744.806 259.661C751.823 263.552 759.717 265.59 767.74 265.58H895.94C902.069 265.575 908.185 266.134 914.211 267.25C916.831 267.73 919.43 268.32 921.97 269.02C943.075 274.75 961.707 287.267 974.991 304.639C988.275 322.01 995.472 343.271 995.472 365.14C995.472 387.009 988.275 408.27 974.991 425.641C961.707 443.013 943.075 455.53 921.97 461.26C919.43 461.95 916.831 462.54 914.211 463.02C908.185 464.139 902.069 464.701 895.94 464.7H834C830.925 464.696 827.857 464.994 824.841 465.59C822.191 466.101 819.591 466.844 817.07 467.81C815.384 468.47 813.735 469.221 812.13 470.06C809.248 471.56 806.53 473.356 804.021 475.42C798.6 479.849 794.234 485.43 791.239 491.757C788.245 498.085 786.698 505 786.711 512V513C786.962 525.371 792.056 537.15 800.899 545.806C809.741 554.462 821.627 559.303 834 559.29H914.22C916.84 559.29 919.44 559.45 921.98 559.71C926.944 560.2 931.851 561.148 936.641 562.54C937.341 562.74 938.031 562.95 938.711 563.17C955.197 568.459 969.58 578.846 979.786 592.833C989.991 606.82 995.494 623.685 995.5 641Z" fill="#F3F4FE"/>
<path d="M144.8 266V464.4C142.17 464.18 139.59 463.87 137.03 463.4V266.93C139.59 266.51 142.17 266.19 144.8 266Z" fill="#EDEEFE"/>
<path d="M144.8 725.21V911.71H137V729.94C139.746 728.617 142.358 727.033 144.8 725.21Z" fill="#EDEEFE"/>
<path d="M234.18 265.63H241.95V464.75H234.18V265.63Z" fill="#EDEEFE"/>
<path d="M242 564.12V911.71H234.23V566.81C236.72 565.81 239.31 564.9 242 564.12Z" fill="#EDEEFE"/>
<path d="M339.1 251V911.71H331.33V257.51C334.146 255.625 336.751 253.443 339.1 251Z" fill="#EDEEFE"/>
<path d="M436.24 161.53V911.71H428.48V163.58C431.12 163.116 433.716 162.431 436.24 161.53Z" fill="#EDEEFE"/>
<path d="M525.63 62.94H533.4V911.7H525.63V62.94Z" fill="#EDEEFE"/>
<path d="M622.76 62.94H630.54V911.7H622.76V62.94Z" fill="#EDEEFE"/>
<path d="M720.5 211.55V218.35C720.496 220.41 720.63 222.468 720.9 224.51C721.777 231.217 724.09 237.657 727.68 243.39V911.71H719.91V62.94H727.68V186.51C722.979 194.015 720.491 202.694 720.5 211.55Z" fill="#EDEEFE"/>
<path d="M824.83 79.77V147.45C822.525 150.185 819.918 152.651 817.06 154.8V72.42C819.916 74.572 822.522 77.0374 824.83 79.77Z" fill="#EDEEFE"/>
<path d="M824.83 265.63V465.63C822.179 466.14 819.579 466.883 817.06 467.85V265.63H824.83Z" fill="#EDEEFE"/>
<path d="M817.06 556.18C819.581 557.142 822.18 557.885 824.83 558.4V907.63C822.296 908.594 819.7 909.386 817.06 910V556.18Z" fill="#EDEEFE"/>
<path d="M922 269.07V461.31C919.46 462 916.86 462.59 914.24 463.07V267.3C916.83 267.78 919.43 268.37 922 269.07Z" fill="#EDEEFE"/>
<path d="M914.21 559.29C916.83 559.29 919.43 559.45 921.97 559.71V736C919.42 736.25 916.83 736.39 914.21 736.4V559.29Z" fill="#EDEEFE"/>
<path d="M456.57 360.2V376.94L444 384.67V360.2H456.57Z" fill="#D2D6FA"/>
<path d="M314.381 360.2V384.67L301.811 376.94V360.2H314.381Z" fill="#D2D6FA"/>
<path d="M276.66 360.19H474.52L480.51 345.57H270.66L276.66 360.19Z" fill="#D2D6FA"/>
<path d="M301.81 360.2H314.39V367.5H301.81V360.2Z" fill="#BEC4ED"/>
<path d="M444 360.2H456.57V367.5H444V360.2Z" fill="#BEC4ED"/>
<path d="M309.14 249H315.45C317.664 249 319.788 249.88 321.354 251.446C322.92 253.012 323.8 255.135 323.8 257.35V345.57H300.8V257.35C300.8 255.137 301.678 253.015 303.242 251.449C304.806 249.884 306.927 249.003 309.14 249Z" fill="#ADB6E0"/>
<path d="M312.3 299.67C315.735 299.67 318.52 296.885 318.52 293.45C318.52 290.015 315.735 287.23 312.3 287.23C308.865 287.23 306.08 290.015 306.08 293.45C306.08 296.885 308.865 299.67 312.3 299.67Z" fill="#D2D6FA"/>
<path d="M336.54 268.87H344.67C346.644 268.87 348.536 269.654 349.931 271.049C351.327 272.444 352.11 274.337 352.11 276.31V345.56H329.11V276.32C329.109 275.343 329.3 274.375 329.673 273.472C330.046 272.569 330.592 271.748 331.282 271.056C331.972 270.364 332.792 269.815 333.694 269.44C334.596 269.065 335.563 268.871 336.54 268.87Z" fill="#ADB6E0"/>
<path d="M340.61 315.23C344.045 315.23 346.83 312.445 346.83 309.01C346.83 305.575 344.045 302.79 340.61 302.79C337.174 302.79 334.39 305.575 334.39 309.01C334.39 312.445 337.174 315.23 340.61 315.23Z" fill="#D2D6FA"/>
<path d="M362.7 295.4H368C369.292 295.4 370.53 295.913 371.444 296.826C372.357 297.74 372.87 298.978 372.87 300.27V345.57H357.83V300.27C357.83 298.978 358.343 297.74 359.256 296.826C360.17 295.913 361.408 295.4 362.7 295.4Z" fill="#ADB6E0"/>
<path d="M365.36 325.73C367.608 325.73 369.43 323.908 369.43 321.66C369.43 319.412 367.608 317.59 365.36 317.59C363.112 317.59 361.29 319.412 361.29 321.66C361.29 323.908 363.112 325.73 365.36 325.73Z" fill="#D2D6FA"/>
<path d="M428.16 243.48H459.29C460.115 243.48 460.906 243.808 461.489 244.391C462.072 244.974 462.4 245.765 462.4 246.59V345.36H428.16V243.48Z" fill="#93A0CE"/>
<path d="M425.93 243.48H457.06V345.37H422.81V246.6C422.808 246.19 422.888 245.784 423.044 245.404C423.201 245.025 423.43 244.681 423.72 244.391C424.01 244.101 424.355 243.871 424.734 243.715C425.113 243.558 425.519 243.479 425.93 243.48Z" fill="#ADB6E0"/>
<path d="M439.47 268.52C444.016 268.52 447.7 264.835 447.7 260.29C447.7 255.745 444.016 252.06 439.47 252.06C434.925 252.06 431.24 255.745 431.24 260.29C431.24 264.835 434.925 268.52 439.47 268.52Z" fill="#93A0CE"/>
<path d="M439.47 264.02C441.53 264.02 443.2 262.35 443.2 260.29C443.2 258.23 441.53 256.56 439.47 256.56C437.41 256.56 435.74 258.23 435.74 260.29C435.74 262.35 437.41 264.02 439.47 264.02Z" fill="#D2D6FA"/>
<path d="M439.47 299.9C444.016 299.9 447.7 296.215 447.7 291.67C447.7 287.125 444.016 283.44 439.47 283.44C434.925 283.44 431.24 287.125 431.24 291.67C431.24 296.215 434.925 299.9 439.47 299.9Z" fill="#93A0CE"/>
<path d="M439.47 295.4C441.53 295.4 443.2 293.73 443.2 291.67C443.2 289.61 441.53 287.94 439.47 287.94C437.41 287.94 435.74 289.61 435.74 291.67C435.74 293.73 437.41 295.4 439.47 295.4Z" fill="#D2D6FA"/>
<path d="M439.47 343.24C446.854 343.24 452.84 337.254 452.84 329.87C452.84 322.486 446.854 316.5 439.47 316.5C432.086 316.5 426.1 322.486 426.1 329.87C426.1 337.254 432.086 343.24 439.47 343.24Z" fill="#93A0CE"/>
<path d="M439.47 335.94C442.823 335.94 445.54 333.222 445.54 329.87C445.54 326.518 442.823 323.8 439.47 323.8C436.118 323.8 433.4 326.518 433.4 329.87C433.4 333.222 436.118 335.94 439.47 335.94Z" fill="#D2D6FA"/>
<path d="M976.74 917.88H915.26C909.964 917.88 905.67 922.174 905.67 927.47C905.67 932.766 909.964 937.06 915.26 937.06H976.74C982.036 937.06 986.33 932.766 986.33 927.47C986.33 922.174 982.036 917.88 976.74 917.88Z" fill="#D2D6FA"/>
<path d="M888.27 917.88H25.34C20.0436 917.88 15.75 922.174 15.75 927.47C15.75 932.766 20.0436 937.06 25.34 937.06H888.27C893.566 937.06 897.86 932.766 897.86 927.47C897.86 922.174 893.566 917.88 888.27 917.88Z" fill="#D2D6FA"/>
<path d="M766.73 579.48H869.73C872.462 579.48 875.082 580.565 877.014 582.497C878.945 584.428 880.031 587.048 880.031 589.78V916.53H766.73V579.53V579.48Z" fill="#6675AD"/>
<path d="M759.35 579.48H862.35V916.48H749V589.78C749 588.423 749.268 587.08 749.789 585.827C750.31 584.574 751.073 583.436 752.034 582.479C752.996 581.522 754.138 580.764 755.393 580.25C756.648 579.735 757.993 579.473 759.35 579.48Z" fill="#7986BF"/>
<path d="M804.14 662.28C819.173 662.28 831.36 650.093 831.36 635.06C831.36 620.027 819.173 607.84 804.14 607.84C789.107 607.84 776.92 620.027 776.92 635.06C776.92 650.093 789.107 662.28 804.14 662.28Z" fill="#6675AD"/>
<path d="M804.14 647.41C810.961 647.41 816.49 641.881 816.49 635.06C816.49 628.239 810.961 622.71 804.14 622.71C797.319 622.71 791.79 628.239 791.79 635.06C791.79 641.881 797.319 647.41 804.14 647.41Z" fill="#F3F4FE"/>
<path d="M804.14 766.1C819.173 766.1 831.36 753.913 831.36 738.88C831.36 723.847 819.173 711.66 804.14 711.66C789.107 711.66 776.92 723.847 776.92 738.88C776.92 753.913 789.107 766.1 804.14 766.1Z" fill="#6675AD"/>
<path d="M804.14 751.23C810.961 751.23 816.49 745.701 816.49 738.88C816.49 732.059 810.961 726.53 804.14 726.53C797.319 726.53 791.79 732.059 791.79 738.88C791.79 745.701 797.319 751.23 804.14 751.23Z" fill="#F3F4FE"/>
<path d="M804.14 909.47C828.568 909.47 848.37 889.668 848.37 865.24C848.37 840.812 828.568 821.01 804.14 821.01C779.713 821.01 759.91 840.812 759.91 865.24C759.91 889.668 779.713 909.47 804.14 909.47Z" fill="#6675AD"/>
<path d="M804.14 885.31C815.225 885.31 824.21 876.324 824.21 865.24C824.21 854.156 815.225 845.17 804.14 845.17C793.056 845.17 784.07 854.156 784.07 865.24C784.07 876.324 793.056 885.31 804.14 885.31Z" fill="#F3F4FE"/>
<path d="M371.32 453.81L393.92 535.81L395.45 541.4L393.04 542.12L322.62 562.88C320.132 563.612 317.586 564.13 315.01 564.43C314.58 564.48 314.13 564.54 313.71 564.57C313.29 564.6 312.71 564.65 312.21 564.67C311.71 564.69 311.21 564.67 310.76 564.72C310.31 564.77 309.88 564.72 309.42 564.72C308.32 564.72 307.19 564.67 306.1 564.59L304.79 564.45C304.14 564.39 303.49 564.3 302.79 564.19C302.37 564.12 301.95 564.06 301.53 563.97C300.74 563.84 299.96 563.68 299.18 563.49C288.872 561.008 279.748 555.02 273.37 546.55C273.02 546.07 272.68 545.55 272.37 545.1C270.313 542.118 268.618 538.902 267.32 535.52C266.89 534.37 266.49 533.2 266.14 531.99C265.79 530.78 265.56 529.85 265.34 528.79C262.953 517.604 264.879 505.93 270.73 496.103C276.582 486.276 285.928 479.021 296.9 475.79L371.32 453.81Z" fill="#E07373"/>
<path d="M326.94 539C324.72 543.879 321.422 548.19 317.294 551.609C313.167 555.028 308.317 557.466 303.11 558.74C302.65 558.871 302.182 558.978 301.71 559.06C300.71 559.26 299.79 559.4 298.83 559.53C298.59 559.53 298.34 559.59 298.08 559.61C297.82 559.63 297.41 559.68 297.08 559.7C296.08 559.77 295.15 559.79 294.19 559.77C293.83 559.77 293.48 559.77 293.12 559.77C292.248 559.748 291.376 559.681 290.51 559.57L289.28 559.4C288.121 559.24 286.972 559.01 285.84 558.71C285.36 558.6 284.84 558.46 284.42 558.32C284 558.18 283.42 558.03 283.01 557.86C282.6 557.69 282.09 557.53 281.62 557.35C281.15 557.17 280.7 556.98 280.25 556.78L278.88 556.14C276.597 555.006 274.442 553.632 272.45 552.04L260.64 542.6L187.86 484.43C186.697 483.502 185.595 482.5 184.56 481.43C184.1 480.97 183.66 480.49 183.24 480.02C182.82 479.55 182.24 478.86 181.82 478.27C181.49 477.84 181.18 477.41 180.87 476.96C180.511 476.447 180.177 475.916 179.87 475.37C179.63 475 179.41 474.62 179.19 474.24C179.147 474.179 179.114 474.111 179.09 474.04C178.88 473.703 178.693 473.352 178.53 472.99C178.18 472.35 177.87 471.71 177.58 471.04C177.48 470.81 177.37 470.57 177.28 470.33C177.19 470.09 177.02 469.68 176.9 469.33C176.9 469.33 176.9 469.28 176.9 469.25C176.74 468.82 176.58 468.38 176.44 467.93C176.028 466.75 175.694 465.544 175.44 464.32C175.34 463.993 175.263 463.658 175.21 463.32C175.06 462.52 174.94 461.72 174.84 460.91C174.794 460.51 174.754 460.12 174.72 459.74C174.711 459.57 174.711 459.4 174.72 459.23C174.72 458.82 174.72 458.41 174.66 458.01C174.6 457.61 174.66 457.08 174.66 456.6C174.646 456.561 174.646 456.519 174.66 456.48C174.66 456.03 174.66 455.56 174.66 455.11C174.66 454.66 174.66 454.11 174.74 453.65C174.82 452.65 174.94 451.72 175.11 450.75C175.16 450.44 175.23 450.09 175.3 449.75C176.502 443.779 179.218 438.217 183.187 433.596C187.156 428.976 192.245 425.453 197.966 423.364C203.687 421.275 209.849 420.691 215.862 421.667C221.874 422.644 227.534 425.148 232.3 428.94L316.88 496.54C323.046 501.486 327.385 508.349 329.207 516.041C331.029 523.733 330.232 531.813 326.94 539Z" fill="#EDBA70"/>
<path d="M326.94 539C324.72 543.879 321.422 548.19 317.294 551.609C313.167 555.028 308.317 557.467 303.11 558.74C302.65 558.871 302.182 558.978 301.71 559.06C300.77 559.27 299.8 559.41 298.83 559.53C298.59 559.53 298.34 559.59 298.08 559.61C297.82 559.63 297.41 559.68 297.08 559.7C296.08 559.77 295.15 559.79 294.19 559.77C293.83 559.77 293.48 559.77 293.12 559.77C292.248 559.748 291.376 559.681 290.51 559.57L289.28 559.4C288.121 559.24 286.972 559.01 285.84 558.71C285.36 558.6 284.84 558.46 284.42 558.32C284 558.18 283.42 558.03 283.01 557.86C282.6 557.69 282.09 557.53 281.62 557.35C281.15 557.17 280.7 556.98 280.25 556.78L278.88 556.14C278.6 556.01 278.32 555.86 278.05 555.72L277.73 555.58C277.12 555.31 276.51 555.03 275.91 554.73C275.31 554.43 274.91 554.21 274.32 553.92L273.92 553.69C273.4 553.4 272.87 553.1 272.36 552.79L271.55 552.28C271 551.92 270.46 551.58 269.93 551.21L269.18 550.67C268.67 550.29 268.18 549.91 267.64 549.5C266.9 548.93 266.19 548.32 265.47 547.68C264.56 546.86 263.68 546 262.81 545.09C261.94 544.18 261.33 543.45 260.64 542.6L187.86 484.43C186.697 483.502 185.595 482.5 184.56 481.43C184.1 480.97 183.66 480.49 183.24 480.02C182.82 479.55 182.24 478.86 181.82 478.27C181.49 477.84 181.18 477.41 180.87 476.96C180.511 476.447 180.177 475.916 179.87 475.37C179.63 475 179.41 474.62 179.19 474.24C179.147 474.179 179.114 474.111 179.09 474.04C178.88 473.703 178.693 473.352 178.53 472.99C178.18 472.35 177.87 471.71 177.58 471.04C177.48 470.81 177.37 470.57 177.28 470.33C177.19 470.09 177.02 469.68 176.9 469.33C176.9 469.33 176.9 469.28 176.9 469.25C176.74 468.82 176.58 468.38 176.44 467.93C176.028 466.75 175.694 465.544 175.44 464.32C175.34 463.993 175.263 463.658 175.21 463.32C175.06 462.52 174.92 461.71 174.84 460.91C174.794 460.51 174.754 460.12 174.72 459.74C174.711 459.57 174.711 459.4 174.72 459.23C174.72 458.82 174.72 458.41 174.66 458.01C174.6 457.61 174.66 457.08 174.66 456.6C174.646 456.561 174.646 456.519 174.66 456.48C174.66 456.03 174.66 455.56 174.66 455.11C174.641 454.737 174.641 454.363 174.66 453.99C174.66 453.88 174.66 453.78 174.66 453.65C174.74 452.65 174.86 451.72 175.03 450.75C175.08 450.42 175.14 450.08 175.21 449.75C175.441 454.791 176.747 459.724 179.041 464.219C181.335 468.713 184.564 472.666 188.51 475.81L252.33 526.81L261.33 533.99L273.12 543.42C274.88 544.83 276.772 546.065 278.77 547.11C283.333 549.055 288.184 550.237 293.13 550.61C296.787 550.879 300.463 550.711 304.08 550.11C312.607 548.672 320.542 544.816 326.94 539Z" fill="#38CEA1"/>
<path d="M374.42 534.5C347.33 511.68 344.62 480.55 357.19 457.86L421.83 439.07C426.86 437.606 432.201 437.589 437.24 439.022C442.279 440.455 446.812 443.279 450.32 447.17C456.141 453.618 460.419 461.305 462.83 469.65C475.06 511.7 437.15 556.43 384.26 539.88C380.656 538.756 377.311 536.928 374.42 534.5Z" fill="#E07373"/>
<path d="M317.32 628L193.53 677L121.33 459C116.64 444.83 123.33 429.18 136.33 424L149.49 418.79C197.62 399.73 250.78 426.96 268.21 479.6L317.32 628Z" fill="#F8C97B"/>
<path d="M201.47 415.17C187.94 429.17 164.3 428.12 145.72 420.32L147.27 398.47L149.81 362.47H198.2L200.38 397.47L201.47 415.17Z" fill="#F5A491"/>
<path d="M200.38 397.49C185.91 408.14 158.93 398.89 147.91 389.43L149.81 362.49H198.2L200.38 397.49Z" fill="#EF927F"/>
<path d="M649.11 911.44L547 913.69C544.783 913.734 542.58 913.334 540.519 912.515C538.459 911.696 536.582 910.474 535 908.92C532.464 906.41 530.796 903.155 530.24 899.63L527.47 881.63L525.22 867.09L522.32 848.32L520.76 838.24L520.52 836.75L519.86 832.49L573.66 823.97L574.01 826.13L574.34 828.24L576.17 839.81L578.81 856.46L580.89 869.67C580.993 870.323 581.164 870.963 581.4 871.58C582.062 873.379 583.218 874.954 584.736 876.124C586.254 877.293 588.072 878.01 589.98 878.19C590.369 878.236 590.759 878.256 591.15 878.25L613.93 877.75C621.751 877.582 629.396 880.077 635.611 884.828C641.825 889.578 646.24 896.3 648.13 903.89C648.585 905.718 648.883 907.581 649.02 909.46C649.07 910.13 649.09 910.79 649.11 911.44Z" fill="#F5A491"/>
<path d="M518.49 917.48L649.89 917.54C650.803 917.539 651.706 917.356 652.547 917.002C653.387 916.648 654.15 916.13 654.788 915.478C655.427 914.827 655.929 914.055 656.266 913.207C656.603 912.359 656.767 911.452 656.75 910.54C656.73 909.626 656.527 908.726 656.155 907.892C655.782 907.057 655.246 906.306 654.58 905.681C653.913 905.056 653.128 904.571 652.271 904.253C651.415 903.935 650.503 903.791 649.59 903.83L518.32 909.67C517.297 909.714 516.332 910.158 515.633 910.906C514.934 911.654 514.556 912.646 514.58 913.67C514.609 914.689 515.033 915.656 515.763 916.368C516.493 917.079 517.471 917.478 518.49 917.48Z" fill="#65617B"/>
<path d="M650.32 909.44L572.89 911.14C572.779 906.056 573.669 901 575.512 896.26C577.354 891.52 580.112 887.189 583.628 883.515C587.145 879.841 591.35 876.896 596.004 874.847C600.659 872.799 605.671 871.687 610.755 871.575C615.839 871.463 620.896 872.354 625.635 874.197C630.375 876.039 634.706 878.797 638.38 882.313C642.054 885.829 644.999 890.035 647.048 894.689C649.097 899.343 650.209 904.356 650.32 909.44Z" fill="#65617B"/>
<path d="M581.37 871.58L527.44 881.58L525.19 867.04L522.29 848.27L520.73 838.19L574.31 828.19L576.141 839.76L578.781 856.41L580.86 869.62C580.96 870.29 581.131 870.947 581.37 871.58Z" fill="#EF927F"/>
<path d="M741.51 713L658 771.73C656.183 773.008 654.128 773.909 651.957 774.379C649.787 774.85 647.543 774.881 645.36 774.47C641.855 773.8 638.656 772.027 636.23 769.41L623.87 756L613.87 745.18L601 731.18L594.08 723.67L593.08 722.57L590.16 719.4L630.08 682.34L631.57 683.94L633.02 685.5L641.02 694.09L652.49 706.45L661.57 716.25C662.025 716.732 662.524 717.17 663.06 717.56C664.613 718.682 666.452 719.343 668.364 719.467C670.277 719.591 672.185 719.173 673.87 718.26C674.221 718.091 674.556 717.89 674.87 717.66L693.5 704.6C699.903 700.094 707.648 697.901 715.463 698.381C723.278 698.86 730.697 701.985 736.5 707.24C737.896 708.507 739.181 709.893 740.34 711.38C740.74 711.89 741.13 712.42 741.51 713Z" fill="#F5A491"/>
<path d="M636.42 790.77L745.55 717.58C746.308 717.071 746.957 716.416 747.459 715.653C747.961 714.89 748.305 714.034 748.472 713.136C748.639 712.238 748.624 711.316 748.43 710.424C748.236 709.532 747.865 708.687 747.34 707.94C746.815 707.192 746.145 706.557 745.371 706.072C744.597 705.587 743.733 705.261 742.831 705.115C741.929 704.969 741.007 705.004 740.119 705.22C739.231 705.435 738.395 705.826 737.66 706.37L631.92 784.37C631.098 784.978 630.546 785.883 630.384 786.893C630.221 787.902 630.46 788.935 631.05 789.77C631.638 790.605 632.528 791.176 633.532 791.363C634.535 791.55 635.572 791.337 636.42 790.77Z" fill="#65617B"/>
<path d="M741.4 710.61L678.06 755.19C675.066 751.034 672.927 746.326 671.765 741.337C670.604 736.349 670.443 731.18 671.292 726.129C672.142 721.078 673.985 716.246 676.714 711.912C679.444 707.578 683.006 703.829 687.195 700.881C691.383 697.933 696.114 695.845 701.115 694.739C706.116 693.632 711.287 693.527 716.328 694.432C721.369 695.337 726.181 697.233 730.484 700.01C734.788 702.787 738.498 706.39 741.4 710.61Z" fill="#65617B"/>
<path d="M663 717.62L623.87 756L613.87 745.18L601 731.18L594.08 723.67L633 685.56L641 694.15L652.47 706.51L661.55 716.31C661.993 716.79 662.478 717.228 663 717.62Z" fill="#EF927F"/>
<path d="M515.59 550.49L658.53 700.24L608 750.58L458.88 606.94C455.043 603.246 451.982 598.823 449.878 593.93C447.773 589.037 446.667 583.773 446.624 578.447C446.581 573.121 447.603 567.84 449.628 562.914C451.654 557.987 454.643 553.515 458.42 549.76C462.193 546.002 466.678 543.035 471.613 541.034C476.548 539.032 481.833 538.036 487.158 538.104C492.483 538.172 497.741 539.303 502.623 541.429C507.505 543.556 511.914 546.637 515.59 550.49Z" fill="#65617B"/>
<path d="M566.24 652L585.67 858.11L514.77 866.29L486.77 661.17C486.048 655.894 486.387 650.527 487.766 645.384C489.146 640.241 491.539 635.425 494.804 631.218C498.07 627.012 502.143 623.5 506.783 620.889C511.424 618.277 516.539 616.619 521.83 616.01C527.118 615.4 532.476 615.851 537.588 617.338C542.7 618.825 547.464 621.318 551.6 624.67C555.736 628.022 559.161 632.166 561.675 636.859C564.189 641.552 565.741 646.699 566.24 652Z" fill="#56526A"/>
<path d="M224.06 615.76H525.58C536.416 615.76 546.809 620.065 554.472 627.728C562.135 635.39 566.44 645.783 566.44 656.62C566.44 667.457 562.135 677.85 554.472 685.512C546.809 693.175 536.416 697.48 525.58 697.48H224.06V615.76Z" fill="#56526A"/>
<path d="M551.92 862.24L535.92 691.52C534.884 680.572 529.711 670.431 521.454 663.167C513.198 655.903 502.481 652.063 491.49 652.43L210.66 662.07L210.59 659.94L491.42 650.3C502.949 649.92 514.189 653.949 522.85 661.566C531.512 669.184 536.944 679.817 538.04 691.3L554.04 862.02L551.92 862.24Z" fill="#EDEEFE"/>
<path d="M191.179 658.467L469.403 542.255C479.403 538.078 490.652 538.045 500.676 542.162C510.7 546.279 518.678 554.21 522.855 564.209C527.032 574.209 527.065 585.458 522.948 595.482C518.83 605.506 510.9 613.484 500.9 617.661L222.675 733.874L191.179 658.467Z" fill="#65617B"/>
<path d="M532.14 616C531.14 615.9 530.14 615.83 529.05 615.81L517.75 603.66C509.661 594.969 499.067 589.012 487.438 586.618C475.809 584.224 463.724 585.511 452.86 590.3L207.86 698.47L207.01 696.53L452 588.33C463.267 583.363 475.802 582.029 487.863 584.512C499.924 586.996 510.912 593.175 519.3 602.19L532.14 616Z" fill="#F3F4FE"/>
<path d="M635.43 727.03L633.88 728.48L566.09 655.61L565.97 652.35L635.43 727.03Z" fill="#F3F4FE"/>
<path d="M652.17 687.908L598.523 743.519C595.647 746.501 595.732 751.248 598.713 754.124L598.72 754.131C601.702 757.007 606.449 756.922 609.325 753.941L662.972 698.329C665.848 695.348 665.763 690.6 662.782 687.724L662.775 687.717C659.793 684.841 655.046 684.927 652.17 687.908Z" fill="#65617B"/>
<path d="M212.933 328.596C220.802 327.748 225.801 314.255 224.099 298.457C222.396 282.659 214.638 270.54 206.769 271.388C198.9 272.235 193.901 285.729 195.604 301.527C197.306 317.325 205.065 329.444 212.933 328.596Z" fill="#7C5B5D"/>
<path d="M108.64 308.17L113.43 336.8C116.344 354.166 126.035 369.663 140.374 379.883C154.713 390.104 172.524 394.21 189.89 391.3C200.335 389.545 209.655 383.713 215.801 375.086C221.946 366.46 224.414 355.745 222.66 345.3L215.85 304.63L214.69 297.76L214.26 295.23L213 287.75C212.278 283.442 210.713 279.319 208.397 275.616C206.08 271.912 203.057 268.702 199.499 266.168C195.942 263.633 191.919 261.825 187.663 260.845C183.406 259.866 178.998 259.735 174.69 260.46L167.59 261.65L138.28 266.56C134.495 267.184 130.835 268.413 127.44 270.2C120.188 274.025 114.446 280.193 111.15 287.7C108.325 294.13 107.452 301.248 108.64 308.17Z" fill="#F5A491"/>
<path d="M117.76 308.64C126.99 326.58 159.38 328.3 190.1 312.49C198.972 307.983 207.116 302.168 214.26 295.24L213 287.75C212.277 283.442 210.713 279.319 208.397 275.616C206.08 271.912 203.057 268.702 199.499 266.168C195.941 263.633 191.919 261.825 187.662 260.845C183.405 259.866 178.997 259.735 174.69 260.46L167.59 261.65L138.28 266.56C134.494 267.184 130.834 268.413 127.44 270.2C116.38 283.35 112.15 297.74 117.76 308.64Z" fill="#EF927F"/>
<path d="M165.39 328.95C167.925 328.95 169.98 326.895 169.98 324.36C169.98 321.825 167.925 319.77 165.39 319.77C162.855 319.77 160.8 321.825 160.8 324.36C160.8 326.895 162.855 328.95 165.39 328.95Z" fill="#5E4041"/>
<path d="M197.69 327.9C200.225 327.9 202.28 325.845 202.28 323.31C202.28 320.775 200.225 318.72 197.69 318.72C195.155 318.72 193.1 320.775 193.1 323.31C193.1 325.845 195.155 327.9 197.69 327.9Z" fill="#5E4041"/>
<path d="M188.9 341.17C188.949 342.52 188.731 343.866 188.257 345.131C187.784 346.396 187.064 347.555 186.14 348.54C185.91 348.78 185.67 349.01 185.42 349.24C183.642 350.813 181.373 351.718 179 351.8H178.59C176.009 351.883 173.49 350.994 171.533 349.309C169.576 347.624 168.322 345.265 168.02 342.7C167.982 342.418 167.958 342.134 167.95 341.85C167.934 341.321 168.128 340.807 168.49 340.421C168.851 340.035 169.351 339.808 169.88 339.79L186.88 339.22C187.405 339.215 187.912 339.416 188.29 339.781C188.668 340.146 188.887 340.645 188.9 341.17Z" fill="#962F4A"/>
<path d="M178.7 350.23C178.723 350.762 178.689 351.295 178.6 351.82H178.54C175.96 351.905 173.441 351.016 171.485 349.331C169.529 347.645 168.278 345.285 167.98 342.72C168.715 342.483 169.479 342.348 170.25 342.32C172.42 342.25 174.528 343.044 176.112 344.527C177.696 346.01 178.627 348.061 178.7 350.23Z" fill="#E1617F"/>
<path d="M186.46 339.25C186.46 341.25 183.39 343 179.57 343.12C175.75 343.24 172.57 341.74 172.43 339.73L186.46 339.25Z" fill="white"/>
<path d="M111.556 355.304L109.14 355.564L103.193 300.374L131.032 297.374L134.239 327.142C134.966 333.884 132.984 340.64 128.73 345.921C124.476 351.202 118.298 354.578 111.556 355.304Z" fill="#7C5B5D"/>
<path d="M118.83 358.62C128.159 358.62 135.72 351.058 135.72 341.73C135.72 332.402 128.159 324.84 118.83 324.84C109.502 324.84 101.94 332.402 101.94 341.73C101.94 351.058 109.502 358.62 118.83 358.62Z" fill="#F5A491"/>
<path d="M113.55 340.37C113.516 341.805 113.905 343.218 114.67 344.433C115.435 345.648 116.541 346.61 117.85 347.2C118.165 347.329 118.506 347.379 118.845 347.346C119.184 347.312 119.509 347.196 119.792 347.007C120.076 346.819 120.308 346.564 120.47 346.264C120.632 345.965 120.718 345.63 120.72 345.29L120.96 335.81C120.972 335.449 120.892 335.091 120.727 334.77C120.562 334.448 120.318 334.175 120.017 333.974C119.717 333.774 119.37 333.654 119.01 333.625C118.65 333.596 118.288 333.66 117.96 333.81C116.674 334.367 115.575 335.281 114.793 336.444C114.012 337.606 113.58 338.969 113.55 340.37Z" fill="#EF927F"/>
<path d="M115.44 314.84C132.268 314.84 145.91 301.198 145.91 284.37C145.91 267.542 132.268 253.9 115.44 253.9C98.6116 253.9 84.9697 267.542 84.9697 284.37C84.9697 301.198 98.6116 314.84 115.44 314.84Z" fill="#7C5B5D"/>
<path d="M85.1402 287.64C85.6069 292.011 87.0174 296.229 89.274 300.001C91.5307 303.774 94.5796 307.011 98.2102 309.49C92.6148 304.226 89.215 297.043 88.6919 289.378C88.1687 281.714 90.5609 274.135 95.3891 268.16C100.217 262.185 107.125 258.255 114.728 257.157C122.332 256.059 130.069 257.875 136.39 262.24C131.863 257.95 126.128 255.153 119.961 254.227C113.794 253.3 107.49 254.288 101.902 257.057C96.3143 259.827 91.7106 264.244 88.7131 269.713C85.7155 275.182 84.4684 281.44 85.1402 287.64Z" fill="#5E4041"/>
<path d="M145.29 304.45C167.868 304.45 186.17 286.147 186.17 263.57C186.17 240.993 167.868 222.69 145.29 222.69C122.713 222.69 104.41 240.993 104.41 263.57C104.41 286.147 122.713 304.45 145.29 304.45Z" fill="#7C5B5D"/>
<path d="M196.64 309.08C219.217 309.08 237.52 290.777 237.52 268.2C237.52 245.623 219.217 227.32 196.64 227.32C174.062 227.32 155.76 245.623 155.76 268.2C155.76 290.777 174.062 309.08 196.64 309.08Z" fill="#7C5B5D"/>
<path d="M145.29 304.45C167.868 304.45 186.17 286.147 186.17 263.57C186.17 240.993 167.868 222.69 145.29 222.69C122.713 222.69 104.41 240.993 104.41 263.57C104.41 286.147 122.713 304.45 145.29 304.45Z" fill="#7C5B5D"/>
<path d="M196.64 309.08C219.217 309.08 237.52 290.777 237.52 268.2C237.52 245.623 219.217 227.32 196.64 227.32C174.062 227.32 155.76 245.623 155.76 268.2C155.76 290.777 174.062 309.08 196.64 309.08Z" fill="#7C5B5D"/>
<path d="M104.53 260.36C106.53 254.264 109.937 248.725 114.477 244.191C119.016 239.658 124.559 236.258 130.658 234.266C136.756 232.274 143.238 231.748 149.578 232.728C155.918 233.709 161.938 236.169 167.15 239.91C168.839 241.109 170.424 242.447 171.89 243.91C174.051 242.431 176.356 241.174 178.77 240.16C177.302 238.072 175.649 236.121 173.83 234.33C168.267 228.909 161.274 225.184 153.67 223.593C146.067 222.002 138.167 222.609 130.896 225.344C123.625 228.079 117.284 232.829 112.615 239.038C107.945 245.246 105.141 252.656 104.53 260.4V260.36Z" fill="#5E4041"/>
<path d="M167.15 239.91C168.839 241.109 170.424 242.447 171.89 243.91C174.051 242.431 176.356 241.174 178.77 240.16C182.45 238.593 186.343 237.582 190.32 237.16C201.094 236.002 211.887 239.171 220.325 245.968C228.764 252.766 234.158 262.637 235.32 273.41C235.586 275.932 235.623 278.472 235.43 281C238.09 272.91 238.156 264.191 235.619 256.062C233.082 247.933 228.069 240.799 221.281 235.657C214.493 230.515 206.267 227.622 197.755 227.383C189.242 227.143 180.867 229.568 173.8 234.32C171.381 235.928 169.151 237.804 167.15 239.91Z" fill="#5E4041"/>
<path d="M139.56 287.21C149.292 287.21 157.18 279.321 157.18 269.59C157.18 259.859 149.292 251.97 139.56 251.97C129.829 251.97 121.94 259.859 121.94 269.59C121.94 279.321 129.829 287.21 139.56 287.21Z" fill="#5E4041"/>
<path d="M311.43 439.155L284.438 482.403C280.318 489.004 282.329 497.696 288.93 501.816C295.532 505.936 304.223 503.925 308.344 497.323L335.336 454.076C339.457 447.474 337.445 438.783 330.844 434.662C324.242 430.542 315.551 432.554 311.43 439.155Z" fill="#F0A284"/>
<path d="M425.86 433.68C429.621 433.68 432.67 430.631 432.67 426.87C432.67 423.109 429.621 420.06 425.86 420.06C422.099 420.06 419.05 423.109 419.05 426.87C419.05 430.631 422.099 433.68 425.86 433.68Z" fill="#2329AD"/>
<path d="M427.79 433.53C431.552 433.53 434.6 430.481 434.6 426.72C434.6 422.959 431.552 419.91 427.79 419.91C424.029 419.91 420.98 422.959 420.98 426.72C420.98 430.481 424.029 433.53 427.79 433.53Z" fill="#161762"/>
<path d="M334.88 549.25L422.46 542.06C425.707 541.794 428.756 540.392 431.072 538.1C433.387 535.808 434.821 532.774 435.12 529.53L448.61 383C448.795 380.987 448.537 378.959 447.854 377.056C447.172 375.154 446.082 373.423 444.661 371.987C443.239 370.55 441.521 369.442 439.626 368.739C437.73 368.037 435.705 367.757 433.69 367.92L346.11 375.11C342.863 375.376 339.814 376.778 337.499 379.07C335.183 381.362 333.75 384.396 333.45 387.64L320 534.18C319.814 536.189 320.07 538.214 320.75 540.114C321.429 542.014 322.516 543.742 323.933 545.178C325.351 546.613 327.065 547.722 328.956 548.425C330.847 549.129 332.869 549.41 334.88 549.25Z" fill="#7A59A4"/>
<path d="M345.16 548.41L432.73 541.22C435.977 540.956 439.028 539.554 441.343 537.262C443.659 534.97 445.092 531.935 445.39 528.69L458.89 382.17C459.074 380.16 458.817 378.135 458.136 376.235C457.455 374.336 456.368 372.607 454.95 371.172C453.531 369.737 451.816 368.628 449.925 367.925C448.034 367.222 446.011 366.94 444 367.1L356.43 374.28C353.18 374.546 350.129 375.949 347.811 378.243C345.494 380.536 344.059 383.573 343.76 386.82L330.23 533.33C330.045 535.344 330.303 537.373 330.986 539.276C331.669 541.18 332.76 542.91 334.183 544.347C335.605 545.784 337.325 546.893 339.221 547.594C341.118 548.296 343.144 548.575 345.16 548.41Z" fill="#593870"/>
<path d="M379.78 458.65C380.051 462.088 381.384 465.357 383.596 468.004C385.807 470.651 388.786 472.545 392.121 473.424C395.456 474.303 398.982 474.123 402.21 472.909C405.439 471.695 408.21 469.508 410.14 466.65C408.746 467.191 407.28 467.527 405.79 467.65C403.607 467.835 401.41 467.587 399.323 466.922C397.237 466.256 395.302 465.185 393.63 463.77C391.958 462.355 390.581 460.625 389.579 458.677C388.577 456.729 387.969 454.603 387.79 452.42C387.473 448.654 388.469 444.895 390.61 441.78C387.207 443.019 384.304 445.34 382.348 448.387C380.391 451.435 379.489 455.04 379.78 458.65Z" fill="#7A59A4"/>
<path d="M448.97 440.178L427.158 450.615C421.23 453.451 418.723 460.557 421.56 466.486C424.397 472.414 431.502 474.92 437.431 472.084L459.243 461.647C465.171 458.811 467.677 451.705 464.841 445.777C462.004 439.848 454.899 437.342 448.97 440.178Z" fill="#ED9281"/>
<path d="M458.632 460.381L436.82 470.817C430.892 473.654 428.385 480.759 431.222 486.688C434.059 492.616 441.164 495.123 447.093 492.286L468.905 481.85C474.833 479.013 477.34 471.907 474.503 465.979C471.666 460.05 464.561 457.544 458.632 460.381Z" fill="#ED9281"/>
<path d="M467.197 489.429L443.017 490.154C436.445 490.351 431.277 495.839 431.474 502.411C431.671 508.983 437.159 514.151 443.731 513.954L467.911 513.229C474.483 513.032 479.651 507.544 479.454 500.972C479.257 494.4 473.769 489.232 467.197 489.429Z" fill="#ED9281"/>
<path d="M166.08 588.027C175.832 605.055 197.54 610.954 214.565 601.204C231.591 591.453 237.487 569.745 227.735 552.717L173.923 458.755C164.171 441.727 142.463 435.828 125.438 445.578C108.412 455.329 102.516 477.037 112.268 494.065L166.08 588.027Z" fill="#EDBA70"/>
<path d="M107.73 472.91C111.034 467.781 115.603 463.589 120.997 460.737C126.391 457.886 132.428 456.47 138.527 456.628C144.626 456.786 150.582 458.511 155.821 461.638C161.06 464.764 165.406 469.187 168.44 474.48L222.25 568.48C225.936 574.89 227.517 582.294 226.77 589.65C230.302 584.187 232.263 577.858 232.44 571.355C232.616 564.852 231.001 558.426 227.77 552.78L173.95 458.78C170.207 452.248 164.485 447.074 157.61 444.005C150.736 440.936 143.064 440.129 135.701 441.702C128.339 443.275 121.666 447.147 116.646 452.757C111.626 458.368 108.518 465.429 107.77 472.92L107.73 472.91Z" fill="#E0AB65"/>
<path d="M333.07 556C351.44 542.44 354.24 515.09 339.35 494.91C327.99 479.53 309.62 472.76 293.35 476.42C288.196 477.593 283.344 479.835 279.11 483L177.82 557.8C159.45 571.36 156.64 598.71 171.54 618.89C186.44 639.07 213.41 644.43 231.77 630.89L333.07 556Z" fill="#F0A284"/>
<path d="M213.799 593.888C208.786 597.456 207.615 604.411 211.182 609.424C214.75 614.437 221.705 615.608 226.718 612.04L272.823 579.227C277.835 575.659 279.007 568.704 275.439 563.691C271.872 558.679 264.916 557.507 259.904 561.075L213.799 593.888Z" fill="#FCB798"/>
<path d="M294.44 568.94C261.44 556.18 248.7 527.63 253.2 502.09L308.2 463.28C312.48 460.259 317.525 458.504 322.757 458.218C327.988 457.931 333.195 459.124 337.78 461.66C345.38 465.865 351.928 471.739 356.93 478.84C382.17 514.62 360.93 569.25 305.5 570.84C301.724 570.943 297.965 570.297 294.44 568.94Z" fill="#F0A284"/>
<path d="M330.134 445.691L296.222 473.945C290.243 478.927 289.434 487.811 294.416 493.79C299.397 499.768 308.281 500.577 314.26 495.596L348.172 467.341C354.15 462.36 354.959 453.476 349.978 447.497C344.997 441.518 336.112 440.71 330.134 445.691Z" fill="#F0A284"/>
<path d="M361.543 491.943L322.436 512.413C315.542 516.022 312.879 524.537 316.488 531.431C320.096 538.325 328.611 540.989 335.505 537.38L374.611 516.909C381.506 513.301 384.169 504.786 380.56 497.892C376.951 490.997 368.437 488.334 361.543 491.943Z" fill="#F0A284"/>
<path d="M171.55 618.86C184.21 636 205.55 642.45 222.98 635.69C226.111 634.466 229.066 632.836 231.77 630.84L313.94 570.14C344.54 566.04 362.99 544.73 366.74 521.04L374.59 516.94C377.665 515.331 380.039 512.646 381.26 509.398C382.481 506.15 382.464 502.566 381.21 499.33C381.024 498.843 380.807 498.369 380.56 497.91C380.36 497.53 380.16 497.18 379.94 496.81C379.812 499.252 379.049 501.618 377.727 503.676C376.405 505.733 374.569 507.409 372.4 508.54L367.4 511.14L364.52 512.64C363.946 516.421 362.977 520.131 361.63 523.71C356.839 536.655 347.54 547.438 335.44 554.08C328.106 558.107 320.074 560.706 311.77 561.74L300 570.45L229.61 622.45C226.9 624.442 223.942 626.072 220.81 627.3C203.4 634.06 182.04 627.61 169.38 610.47C166.511 606.615 164.229 602.355 162.61 597.83C163.889 605.447 166.953 612.654 171.55 618.86Z" fill="#FCB798"/>
<path d="M360.087 460.129L302.22 497.008C295.658 501.19 293.728 509.901 297.911 516.463C302.093 523.025 310.803 524.955 317.365 520.772L375.232 483.893C381.795 479.71 383.724 471 379.542 464.438C375.359 457.876 366.649 455.946 360.087 460.129Z" fill="#F0A284"/>
<path d="M588.257 844.598L511.69 855.005C507.586 855.563 504.711 859.342 505.269 863.447L505.27 863.457C505.828 867.561 509.608 870.436 513.712 869.878L590.278 859.472C594.382 858.914 597.257 855.134 596.7 851.03L596.698 851.02C596.14 846.916 592.361 844.041 588.257 844.598Z" fill="#56526A"/>
<path d="M486.47 717.82C486.47 726.745 482.925 735.304 476.614 741.614C470.304 747.925 461.745 751.47 452.82 751.47H194.82C188.876 751.471 183.094 749.527 178.356 745.936C173.619 742.345 170.186 737.304 168.58 731.58L69.9201 379.7C68.857 375.853 69.3416 371.742 71.2702 368.247C73.1988 364.753 76.4183 362.151 80.2401 361L87.7701 358.74C91.7826 357.537 95.9929 357.136 100.16 357.56C104.328 357.985 108.371 359.226 112.059 361.213C115.746 363.201 119.006 365.895 121.652 369.142C124.298 372.39 126.279 376.127 127.48 380.14L178 548.76C181.976 562.029 190.124 573.662 201.235 581.932C212.346 590.203 225.829 594.67 239.68 594.67H353.3C368.787 594.673 383.639 600.827 394.589 611.779C405.539 622.73 411.69 637.583 411.69 653.07V684.16H452.82C461.746 684.163 470.305 687.71 476.615 694.022C482.925 700.335 486.47 708.895 486.47 717.82Z" fill="#6675AD"/>
<path d="M486.45 716.5C486.744 724.095 484.46 731.566 479.971 737.699C475.481 743.832 469.049 748.266 461.72 750.28C462.555 746.989 462.893 743.591 462.72 740.2C461.79 722.2 446.46 708.31 428.44 708.31H399.44C397.938 708.313 396.451 708.019 395.063 707.446C393.675 706.874 392.414 706.033 391.351 704.972C390.289 703.912 389.446 702.652 388.871 701.265C388.296 699.878 388 698.391 388 696.89V677.21C387.997 661.723 381.843 646.871 370.891 635.921C359.939 624.971 345.086 618.82 329.6 618.82H216C202.146 618.818 188.662 614.349 177.549 606.077C166.436 597.805 158.286 586.171 154.31 572.9L103.76 404.24C101.659 397.213 97.1999 391.125 91.1339 387.003C85.068 382.881 77.7662 380.976 70.4595 381.61L69.9195 379.69C68.8594 375.844 69.3455 371.736 71.2738 368.244C73.2022 364.751 76.4199 362.152 80.2395 361L87.7595 358.74C91.7727 357.537 95.9836 357.136 100.152 357.56C104.32 357.984 108.364 359.225 112.052 361.213C115.741 363.2 119.002 365.894 121.649 369.142C124.296 372.389 126.277 376.127 127.48 380.14L178 548.76C181.977 562.03 190.127 573.663 201.24 581.933C212.353 590.204 225.837 594.67 239.69 594.67H353.29C368.781 594.67 383.638 600.824 394.592 611.778C405.546 622.732 411.7 637.589 411.7 653.08V684.16H452.21C470.389 684.16 485.75 698.33 486.45 716.5Z" fill="#5B6DA5"/>
<path d="M233.33 751.48L226.87 775.12L187.79 917.88H175.49L205.35 775.12L210.29 751.48H233.33Z" fill="#6675AD"/>
<path d="M477.11 917.88H464.81L425.73 775.12L419.27 751.48H442.31L447.25 775.12L477.11 917.88Z" fill="#6675AD"/>
<path d="M210.29 751.48H233.33L226.87 775.12H205.35L210.29 751.48Z" fill="#5B6DA5"/>
<path d="M447.25 775.12H425.73L419.27 751.48H442.31L447.25 775.12Z" fill="#5B6DA5"/>
<path d="M743.98 149.36H585.9C571.436 149.36 559.71 161.086 559.71 175.55V524.64C559.71 539.104 571.436 550.83 585.9 550.83H743.98C758.444 550.83 770.17 539.104 770.17 524.64V175.55C770.17 161.086 758.444 149.36 743.98 149.36Z" fill="#ADB6E0"/>
<path d="M742.72 163.73H587.16C579.401 163.73 573.11 170.02 573.11 177.78V522.41C573.11 530.17 579.401 536.46 587.16 536.46H742.72C750.48 536.46 756.77 530.17 756.77 522.41V177.78C756.77 170.02 750.48 163.73 742.72 163.73Z" fill="#F3F4FE"/>
<path d="M756.77 177.77V522.41C756.777 524.253 756.42 526.079 755.719 527.783C755.018 529.487 753.988 531.036 752.687 532.342C751.387 533.647 749.841 534.683 748.139 535.389C746.438 536.096 744.613 536.46 742.77 536.46H587.16C585.318 536.46 583.493 536.096 581.791 535.389C580.089 534.683 578.544 533.647 577.243 532.342C575.942 531.036 574.912 529.487 574.212 527.783C573.511 526.079 573.154 524.253 573.16 522.41V177.77C573.16 174.057 574.635 170.496 577.261 167.87C579.886 165.245 583.447 163.77 587.16 163.77H742.72C744.563 163.763 746.389 164.121 748.093 164.821C749.798 165.522 751.347 166.552 752.652 167.853C753.957 169.153 754.993 170.699 755.7 172.401C756.406 174.103 756.77 175.927 756.77 177.77Z" fill="#F3F4FE"/>
<path d="M756.77 260.94V522.41C756.776 524.253 756.419 526.079 755.718 527.783C755.018 529.487 753.987 531.037 752.687 532.342C751.386 533.647 749.84 534.683 748.139 535.39C746.437 536.096 744.612 536.46 742.77 536.46H685.77V234.63L756.77 260.94Z" fill="#EBECFD"/>
<path d="M650.81 536.46V306.04L685.71 285.1V536.46H650.81Z" fill="#D9DCFB"/>
<path d="M611.07 258.25V536.46H587.16C585.318 536.46 583.493 536.096 581.791 535.39C580.089 534.683 578.544 533.647 577.243 532.342C575.942 531.037 574.912 529.487 574.212 527.783C573.511 526.079 573.154 524.253 573.16 522.41V272.21L611.07 258.25Z" fill="#EBECFD"/>
<path d="M635.77 266.84V536.46H611.07V258.25L635.77 266.84Z" fill="#D9DCFB"/>
<path d="M699.02 273.57H716.4V282.99H699.02V273.57Z" fill="#F1F2FD"/>
<path d="M576.63 294.89H606.28V267.31L576.63 278.66V294.89Z" fill="#F1F2FD"/>
<path d="M731.2 273.57H748.58V282.99H731.2V273.57Z" fill="#F1F2FD"/>
<path d="M699.02 298.36H716.4V307.78H699.02V298.36Z" fill="#F1F2FD"/>
<path d="M731.2 298.36H748.58V307.78H731.2V298.36Z" fill="#F1F2FD"/>
<path d="M699.02 323.14H716.4V332.56H699.02V323.14Z" fill="#F1F2FD"/>
<path d="M731.2 323.14H748.58V332.56H731.2V323.14Z" fill="#F1F2FD"/>
<path d="M699.02 347.93H716.4V357.35H699.02V347.93Z" fill="#F1F2FD"/>
<path d="M731.2 347.93H748.58V357.35H731.2V347.93Z" fill="#F1F2FD"/>
<path d="M699.02 372.71H716.4V382.13H699.02V372.71Z" fill="#F1F2FD"/>
<path d="M731.2 372.71H748.58V382.13H731.2V372.71Z" fill="#F1F2FD"/>
<path d="M699.02 397.5H716.4V406.92H699.02V397.5Z" fill="#F1F2FD"/>
<path d="M731.2 397.5H748.58V406.92H731.2V397.5Z" fill="#F1F2FD"/>
<path d="M699.02 422.28H716.4V431.7H699.02V422.28Z" fill="#F1F2FD"/>
<path d="M731.2 422.28H748.58V431.7H731.2V422.28Z" fill="#F1F2FD"/>
<path d="M699.02 447.07H716.4V456.49H699.02V447.07Z" fill="#F1F2FD"/>
<path d="M731.2 447.07H748.58V456.49H731.2V447.07Z" fill="#F1F2FD"/>
<path d="M699.02 471.85H716.4V481.27H699.02V471.85Z" fill="#F1F2FD"/>
<path d="M731.2 471.85H748.58V481.27H731.2V471.85Z" fill="#F1F2FD"/>
<path d="M699.02 496.64H716.4V506.06H699.02V496.64Z" fill="#F1F2FD"/>
<path d="M731.2 496.64H748.58V506.06H731.2V496.64Z" fill="#F1F2FD"/>
<path d="M699.02 521.43H716.4V530.85H699.02V521.43Z" fill="#F1F2FD"/>
<path d="M731.2 521.43H748.58V530.85H731.2V521.43Z" fill="#F1F2FD"/>
<path d="M576.63 303.07H606.28V316.63H576.63V303.07Z" fill="#F1F2FD"/>
<path d="M576.63 326.26H587.52V339.82H576.63V326.26Z" fill="#F1F2FD"/>
<path d="M595.39 326.26H606.28V339.82H595.39V326.26Z" fill="#F1F2FD"/>
<path d="M576.63 353.06H606.28V366.62H576.63V353.06Z" fill="#F1F2FD"/>
<path d="M576.63 376.25H587.52V389.81H576.63V376.25Z" fill="#F1F2FD"/>
<path d="M595.39 376.25H606.28V389.81H595.39V376.25Z" fill="#F1F2FD"/>
<path d="M576.63 403.05H606.28V416.61H576.63V403.05Z" fill="#F1F2FD"/>
<path d="M576.63 426.25H587.52V439.81H576.63V426.25Z" fill="#F1F2FD"/>
<path d="M595.39 426.25H606.28V439.81H595.39V426.25Z" fill="#F1F2FD"/>
<path d="M576.63 452.64H606.28V466.2H576.63V452.64Z" fill="#F1F2FD"/>
<path d="M576.63 475.84H587.52V489.4H576.63V475.84Z" fill="#F1F2FD"/>
<path d="M595.39 475.84H606.28V489.4H595.39V475.84Z" fill="#F1F2FD"/>
<path d="M576.63 502.24H606.28V515.8H576.63V502.24Z" fill="#F1F2FD"/>
<path d="M535.66 187.82H790.77L800.8 173.43H525.63L535.66 187.82Z" fill="#ADB6E0"/>
<path d="M535.66 212.39H790.77L800.8 197.99H525.63L535.66 212.39Z" fill="#ADB6E0"/>
<path d="M535.66 236.96H790.77L800.8 222.56H525.63L535.66 236.96Z" fill="#ADB6E0"/>
<path d="M535.66 261.52H790.77L800.8 247.13H525.63L535.66 261.52Z" fill="#ADB6E0"/>
<path d="M582.5 261.52H587.64V324.75H582.5V261.52Z" fill="#ADB6E0"/>
<path d="M591.02 322.3C591.02 319.014 588.356 316.35 585.07 316.35C581.784 316.35 579.12 319.014 579.12 322.3V333.21C579.12 336.496 581.784 339.16 585.07 339.16C588.356 339.16 591.02 336.496 591.02 333.21V322.3Z" fill="#ADB6E0"/>
</svg>