<svg width="1000" height="1000" viewBox="0 0 1000 1000" fill="none" xmlns="http://www.w3.org/2000/svg">
<path d="M972.14 624.35V634.76C972.162 651.625 968.958 668.339 962.7 684C961.94 685.893 961.14 687.763 960.3 689.61C958.967 692.523 957.544 695.373 956.03 698.16C955.53 699.07 955.03 699.97 954.51 700.86C947.698 712.665 939.111 723.354 929.05 732.55C928.59 732.98 928.12 733.4 927.65 733.82L927.51 733.94L925.9 735.34C918.424 741.765 910.249 747.33 901.53 751.93C899.15 753.19 896.72 754.38 894.26 755.49C889.384 757.704 884.374 759.611 879.26 761.2C878.05 761.58 876.83 761.94 875.61 762.28C872.67 763.11 869.7 763.84 866.68 764.46C857.797 766.294 848.75 767.215 839.68 767.21H786C782.413 767.21 778.861 767.917 775.547 769.29C772.233 770.663 769.222 772.675 766.686 775.212C764.149 777.749 762.138 780.761 760.766 784.076C759.394 787.39 758.689 790.943 758.69 794.53V896.39H302V794.48C302.009 789.387 300.589 784.393 297.902 780.066C295.215 775.738 291.369 772.251 286.8 770C286.087 769.63 285.356 769.296 284.61 769C281.427 767.742 278.033 767.1 274.61 767.11H184.3C182.87 767.11 181.46 767.11 180.04 767.05C172.238 766.814 164.47 765.914 156.82 764.36C153.814 763.747 150.844 763.04 147.91 762.24C139.71 759.99 131.738 756.977 124.1 753.24C123.1 752.77 122.19 752.3 121.24 751.8C112.325 747.202 103.941 741.639 96.2402 735.21L95.7202 734.78C95.3402 734.46 94.9602 734.14 94.5902 733.78L93.0002 732.5C90.9402 730.69 88.9402 728.8 87.0002 726.86C79.1668 719.028 72.3041 710.282 66.5602 700.81C64.3502 697.17 62.3002 693.42 60.4402 689.56C59.5402 687.72 58.6802 685.84 57.8802 683.95C54.2638 675.582 51.4999 666.872 49.6302 657.95C46.2789 641.891 45.7981 625.366 48.2102 609.14C48.4802 607.25 48.8102 605.38 49.2102 603.52C49.3502 602.75 49.5102 601.98 49.6702 601.22C49.9002 600.07 50.1602 598.93 50.4302 597.79C51.1435 594.79 51.9535 591.823 52.8602 588.89C53.3735 587.25 53.9135 585.62 54.4802 584C57.9723 574.037 62.61 564.513 68.3002 555.62C74.6278 545.699 82.1956 536.625 90.8202 528.62C92.9102 526.68 95.0602 524.8 97.2702 523.01C98.2702 522.19 99.2702 521.4 100.27 520.63C103.217 518.343 106.27 516.177 109.43 514.13C121.302 506.395 134.304 500.552 147.97 496.81C151.91 495.73 155.91 494.827 159.97 494.1C162.99 493.547 166.044 493.103 169.13 492.77C172.61 492.39 176.13 492.13 179.7 492.02C181.24 492.02 182.79 491.94 184.34 491.94H290.35C296.597 491.948 302.736 490.315 308.153 487.206C313.571 484.096 318.077 479.618 321.22 474.22C321.62 473.56 321.99 472.88 322.33 472.22C322.901 471.084 323.412 469.919 323.86 468.73C325.211 465.109 325.964 461.293 326.09 457.43C326.09 457.33 326.09 457.23 326.09 457.13C326.09 456.83 326.09 456.52 326.09 456.21C326.09 456.07 326.09 455.93 326.09 455.8C326.09 455.67 326.09 455.58 326.09 455.47C326.046 453.019 325.744 450.578 325.19 448.19C324.763 446.27 324.164 444.392 323.4 442.58C322.779 441.06 322.05 439.587 321.22 438.17C318.572 433.64 314.96 429.748 310.64 426.77C306.319 423.792 301.396 421.802 296.22 420.94C295.92 420.89 295.63 420.84 295.33 420.81C293.674 420.57 292.003 420.453 290.33 420.46H111.47H109.37C87.9274 419.96 67.5065 411.197 52.3702 396C51.4402 395.07 50.5302 394.12 49.6502 393.15C42.8723 385.705 37.4898 377.102 33.7602 367.75C33.0335 365.91 32.3669 364.04 31.7602 362.14C28.1213 350.622 27.0174 338.454 28.5243 326.469C30.0312 314.485 34.1132 302.968 40.4902 292.71C41.6435 290.85 42.8735 289.043 44.1802 287.29C45.6002 285.35 47.1068 283.48 48.7002 281.68C49.0102 281.32 49.3302 280.96 49.7002 280.61C50.5802 279.61 51.4902 278.69 52.4202 277.76C67.5565 262.563 87.9774 253.8 109.42 253.3C110.087 253.3 110.787 253.3 111.52 253.3C124.395 253.317 137.017 249.732 147.96 242.95C152.292 240.257 156.316 237.098 159.96 233.53C167.604 226.063 173.421 216.933 176.96 206.85C177.6 205.02 178.17 203.14 178.65 201.24C179.06 199.65 179.42 198.05 179.71 196.42C180.451 192.325 180.822 188.172 180.82 184.01V113.41C180.807 109.819 181.502 106.261 182.865 102.94C184.229 99.6181 186.234 96.5978 188.766 94.0519C191.298 91.506 194.307 89.4844 197.621 88.1027C200.935 86.7211 204.49 86.0065 208.08 86H844.67C857.91 85.9893 870.962 89.1298 882.748 95.1618C894.534 101.194 904.715 109.944 912.45 120.69C913.27 121.79 914.04 122.92 914.78 124.06C915.26 124.8 915.78 125.54 916.19 126.3C922.939 137.453 926.99 150.028 928.019 163.023C929.049 176.018 927.029 189.074 922.12 201.15C921.35 203.05 920.5 204.92 919.59 206.76C910.863 224.299 896.273 238.231 878.35 246.14C875.368 247.459 872.309 248.597 869.19 249.55C861.245 251.984 852.98 253.218 844.67 253.21H776.67C772.1 253.205 767.552 253.844 763.16 255.11C761.7 255.54 760.26 256.03 758.86 256.58C756.982 257.317 755.151 258.172 753.38 259.14C752.12 259.83 750.89 260.58 749.7 261.38C742.628 266.114 736.913 272.611 733.12 280.23C732.89 280.69 732.67 281.15 732.46 281.62C731.616 283.44 730.895 285.314 730.3 287.23C728.818 291.944 728.065 296.858 728.07 301.8C728.067 309.798 730.039 317.673 733.813 324.724C737.586 331.776 743.044 337.786 749.7 342.22C752.571 344.147 755.642 345.756 758.86 347.02C764.531 349.256 770.574 350.4 776.67 350.39C777.56 350.39 778.44 350.39 779.32 350.45C789.967 350.871 800.33 354.011 809.42 359.57C810.5 360.22 811.55 360.9 812.58 361.62L813.21 362.07C815.078 363.392 816.867 364.821 818.57 366.35C819.06 366.78 819.57 367.23 820.02 367.68C826.239 373.562 831.19 380.652 834.571 388.515C837.952 396.379 839.69 404.85 839.68 413.41V456.41C839.661 465.551 842.493 474.47 847.783 481.925C853.072 489.38 860.556 495 869.19 498C869.78 498.21 870.38 498.4 870.98 498.58C873.36 499.29 875.82 500.07 878.35 500.95C883.44 502.68 888.79 504.75 894.26 507.2C904.021 511.507 913.316 516.801 922 523C924.34 524.69 926.66 526.47 928.93 528.35L929.24 528.61C932.24 531.12 935.24 533.82 938.09 536.69C943.813 542.427 948.914 548.752 953.31 555.56C958.98 564.385 963.393 573.957 966.42 584C966.914 585.6 967.373 587.23 967.8 588.89C968.55 591.77 969.22 594.74 969.8 597.79C970.154 599.67 970.464 601.58 970.73 603.52C970.99 605.36 971.22 607.24 971.39 609.14C971.898 614.194 972.149 619.27 972.14 624.35Z" fill="#F0F3F9"/>
<path opacity="0.11" d="M916.19 126.31H180.77V120.7H912.45C913.27 121.8 914.04 122.93 914.78 124.07C915.26 124.81 915.729 125.55 916.19 126.31Z" fill="#34629B"/>
<path opacity="0.11" d="M922.12 201.16C921.35 203.06 920.5 204.93 919.59 206.77H176.91C177.55 204.94 178.12 203.06 178.6 201.16H922.12Z" fill="#34629B"/>
<path opacity="0.11" d="M732.5 281.63C731.656 283.45 730.935 285.324 730.34 287.24H44.1699C45.5899 285.3 47.0966 283.43 48.6899 281.63H732.5Z" fill="#34629B"/>
<path opacity="0.11" d="M820.07 367.7H33.75C33.0233 365.86 32.3567 363.99 31.75 362.09H813.26C815.128 363.412 816.917 364.841 818.62 366.37C819.11 366.8 819.59 367.25 820.07 367.7Z" fill="#34629B"/>
<path opacity="0.11" d="M839.73 442.56V448.17H325.19C324.764 446.25 324.164 444.372 323.4 442.56H839.73Z" fill="#34629B"/>
<path opacity="0.11" d="M929.22 528.63H90.79C92.88 526.69 95.03 524.81 97.24 523.02H922C924.34 524.71 926.66 526.49 928.93 528.37L929.22 528.63Z" fill="#34629B"/>
<path opacity="0.11" d="M971.38 609.1H48.2197C48.4897 607.21 48.8197 605.34 49.2197 603.48H970.72C971 605.32 971.21 607.2 971.38 609.1Z" fill="#34629B"/>
<path opacity="0.11" d="M962.7 684C961.94 685.893 961.14 687.763 960.3 689.61H60.4496C59.5496 687.77 58.6896 685.89 57.8896 684H962.7Z" fill="#34629B"/>
<path opacity="0.11" d="M866.7 764.41C857.818 766.244 848.771 767.165 839.7 767.16H786C781.785 767.149 777.625 768.122 773.85 770H286.85C286.138 769.63 285.407 769.296 284.66 769C281.477 767.742 278.083 767.1 274.66 767.11H184.3C182.87 767.11 181.46 767.11 180.04 767.05C172.238 766.814 164.47 765.914 156.82 764.36L866.7 764.41Z" fill="#34629B"/>
<path opacity="0.11" d="M301.97 844.88H758.73V850.49H301.97V844.88Z" fill="#34629B"/>
<path d="M82.6404 913.99H139.1C143.96 913.99 147.9 910.05 147.9 905.19V905.18C147.9 900.32 143.96 896.38 139.1 896.38H82.6404C77.7803 896.38 73.8404 900.32 73.8404 905.18V905.19C73.8404 910.05 77.7803 913.99 82.6404 913.99Z" fill="#6E8EC8"/>
<path d="M163.87 913.99H956.21C961.07 913.99 965.01 910.05 965.01 905.19V905.18C965.01 900.32 961.07 896.38 956.21 896.38H163.87C159.01 896.38 155.07 900.32 155.07 905.18V905.19C155.07 910.05 159.01 913.99 163.87 913.99Z" fill="#6E8EC8"/>
<path d="M439 636.75H719.4V897.86H439V636.75Z" fill="#547DBA"/>
<path d="M439 704.46H738.75V816.7H439V704.46Z" fill="#34629B"/>
<path d="M676.8 392H684.61C747.678 392 808.164 417.054 852.76 461.65C897.356 506.246 922.41 566.732 922.41 629.8V636.8H439V629.8C439 566.732 464.054 506.246 508.65 461.65C553.246 417.054 613.732 392 676.8 392Z" fill="#547DBA"/>
<path d="M922.41 629.77V636.77H805.12V629.77C805.12 517.28 727 423 622.06 398.31C640 394.094 658.37 391.976 676.8 392H684.61C816 392 922.41 498.44 922.41 629.77Z" fill="#34629B"/>
<path d="M439 636.75V897.86H366.15C362.703 897.86 359.396 896.49 356.958 894.052C354.52 891.614 353.15 888.308 353.15 884.86V722.57C353.15 711.297 355.371 700.135 359.686 689.721C364.001 679.307 370.325 669.845 378.297 661.875C386.269 653.906 395.734 647.585 406.149 643.274C416.565 638.963 427.728 636.746 439 636.75Z" fill="#BBD7FF"/>
<path d="M381.49 131.75V535.75C381.49 540.089 379.766 544.25 376.698 547.318C373.63 550.386 369.469 552.11 365.13 552.11H196C193.851 552.111 191.723 551.689 189.737 550.867C187.752 550.046 185.948 548.841 184.428 547.321C182.909 545.802 181.704 543.998 180.882 542.012C180.061 540.027 179.638 537.899 179.64 535.75V492C181.18 492 182.73 491.92 184.28 491.92H290.35C296.596 491.928 302.735 490.295 308.153 487.186C313.57 484.076 318.076 479.598 321.22 474.2C321.62 473.54 321.99 472.86 322.33 472.2C322.901 471.064 323.411 469.899 323.86 468.71C325.211 465.089 325.964 461.273 326.09 457.41V455.41C325.921 447.071 322.841 439.053 317.382 432.746C311.923 426.44 304.429 422.242 296.2 420.88C295.9 420.83 295.61 420.78 295.31 420.75C293.654 420.51 291.983 420.393 290.31 420.4H179.66V131.75C179.658 129.603 180.08 127.477 180.9 125.492C181.721 123.508 182.924 121.705 184.441 120.186C185.959 118.667 187.76 117.461 189.744 116.638C191.727 115.816 193.853 115.391 196 115.39H365.13C369.469 115.39 373.63 117.114 376.698 120.182C379.766 123.25 381.49 127.411 381.49 131.75Z" fill="#6E8EC8"/>
<path d="M361.64 154.91V512.61C361.642 514.761 361.221 516.891 360.4 518.878C359.58 520.866 358.375 522.673 356.856 524.195C355.336 525.717 353.532 526.925 351.546 527.749C349.56 528.574 347.43 528.999 345.28 529H215.87C211.531 529 207.37 527.276 204.301 524.208C201.233 521.14 199.51 516.979 199.51 512.64V492H290.35C296.596 492.008 302.736 490.375 308.153 487.266C313.57 484.156 318.076 479.678 321.22 474.28C321.62 473.62 321.99 472.94 322.33 472.28C322.901 471.144 323.411 469.979 323.86 468.79C325.211 465.169 325.964 461.353 326.09 457.49V455.49C325.922 447.151 322.841 439.133 317.382 432.826C311.923 426.52 304.429 422.322 296.2 420.96C295.9 420.91 295.61 420.86 295.31 420.83C293.654 420.59 291.983 420.473 290.31 420.48H199.51V154.91C199.51 152.762 199.933 150.634 200.755 148.649C201.577 146.664 202.782 144.861 204.301 143.342C205.821 141.823 207.624 140.618 209.609 139.795C211.594 138.973 213.721 138.55 215.87 138.55H345.28C347.428 138.55 349.556 138.973 351.54 139.795C353.525 140.618 355.329 141.823 356.848 143.342C358.367 144.861 359.572 146.664 360.394 148.649C361.217 150.634 361.64 152.762 361.64 154.91Z" fill="#E9F1FF"/>
<path d="M361.64 196.06V512.61C361.642 514.761 361.221 516.891 360.4 518.878C359.58 520.866 358.375 522.673 356.856 524.195C355.336 525.717 353.532 526.925 351.546 527.749C349.56 528.574 347.43 528.999 345.28 529H248.34V492H290.34C296.586 492.008 302.726 490.375 308.143 487.266C313.561 484.156 318.066 479.678 321.21 474.28C321.61 473.62 321.98 472.94 322.32 472.28C322.891 471.144 323.402 469.979 323.85 468.79C325.201 465.169 325.954 461.353 326.08 457.49V455.49C325.912 447.151 322.831 439.133 317.372 432.826C311.913 426.52 304.419 422.322 296.19 420.96C295.89 420.91 295.6 420.86 295.3 420.83C293.644 420.59 291.973 420.473 290.3 420.48H248.3V369.56C248.3 367.969 248.932 366.443 250.057 365.317C251.182 364.192 252.709 363.56 254.3 363.56H285.5C287.091 363.56 288.617 362.928 289.742 361.803C290.868 360.677 291.5 359.151 291.5 357.56V202.06C291.5 200.469 292.132 198.943 293.257 197.817C294.382 196.692 295.909 196.06 297.5 196.06H361.64Z" fill="#CDDCF5"/>
<path d="M262.23 384.97H269.75V392.49H262.23V384.97Z" fill="#E9F1FF"/>
<path d="M262.23 418.61H269.75V420.44H262.23V418.61Z" fill="#E9F1FF"/>
<path d="M262.23 491.95H269.75V493.41H262.23V491.95Z" fill="#E9F1FF"/>
<path d="M262.23 519.53H269.75V527.05H262.23V519.53Z" fill="#E9F1FF"/>
<path d="M295.31 417.88V420.79C293.654 420.55 291.983 420.433 290.31 420.44H287.75V417.88H295.31Z" fill="#E9F1FF"/>
<path d="M304.99 207.95H312.51V215.47H304.99V207.95Z" fill="#E9F1FF"/>
<path d="M304.99 255.01H312.51V262.53H304.99V255.01Z" fill="#E9F1FF"/>
<path d="M304.99 302.08H312.51V309.6H304.99V302.08Z" fill="#E9F1FF"/>
<path d="M304.99 349.14H312.51V356.66H304.99V349.14Z" fill="#E9F1FF"/>
<path d="M304.99 396.21H312.51V403.73H304.99V396.21Z" fill="#E9F1FF"/>
<path d="M304.99 490.33H312.51V497.85H304.99V490.33Z" fill="#E9F1FF"/>
<path d="M322.33 233.39H329.85V240.91H322.33V233.39Z" fill="#E9F1FF"/>
<path d="M322.33 280.45H329.85V287.97H322.33V280.45Z" fill="#E9F1FF"/>
<path d="M322.33 327.51H329.85V335.03H322.33V327.51Z" fill="#E9F1FF"/>
<path d="M322.33 374.58H329.85V382.1H322.33V374.58Z" fill="#E9F1FF"/>
<path d="M322.33 421.64H329.85V429.16H322.33V421.64Z" fill="#E9F1FF"/>
<path d="M329.85 468.71V476.23H322.33V472.23C322.901 471.094 323.412 469.929 323.86 468.74L329.85 468.71Z" fill="#E9F1FF"/>
<path d="M322.33 515.77H329.85V523.29H322.33V515.77Z" fill="#E9F1FF"/>
<path d="M343.641 207.51H351.161V215.03H343.641V207.51Z" fill="#E9F1FF"/>
<path d="M343.641 254.58H351.161V262.1H343.641V254.58Z" fill="#E9F1FF"/>
<path d="M343.641 301.64H351.161V309.16H343.641V301.64Z" fill="#E9F1FF"/>
<path d="M343.641 348.71H351.161V356.23H343.641V348.71Z" fill="#E9F1FF"/>
<path d="M343.641 395.77H351.161V403.29H343.641V395.77Z" fill="#E9F1FF"/>
<path d="M343.641 442.83H351.161V450.35H343.641V442.83Z" fill="#E9F1FF"/>
<path d="M343.641 489.9H351.161V497.42H343.641V489.9Z" fill="#E9F1FF"/>
<path d="M326.091 457.41V537.67H321.221V474.23C321.621 473.57 321.991 472.89 322.331 472.23C322.902 471.094 323.412 469.929 323.861 468.74C325.215 465.11 325.968 461.283 326.091 457.41Z" fill="#6E8EC8"/>
<path d="M326.091 129.85V455.45C325.981 449.361 324.304 443.402 321.221 438.15V129.85H326.091Z" fill="#6E8EC8"/>
<path d="M231.03 129.85H235.9V420.44H231.03V129.85Z" fill="#6E8EC8"/>
<path d="M231.03 491.95H235.9V537.67H231.03V491.95Z" fill="#6E8EC8"/>
<path d="M378.33 162.73V167.6H180.49V162.73H378.33Z" fill="#6E8EC8"/>
<path d="M378.33 331.32V336.19H180.49V331.32H378.33Z" fill="#6E8EC8"/>
<path d="M187.2 275.1H373.94V297.16H187.2V275.1Z" fill="#6E8EC8"/>
<path d="M763.2 255.12C761.74 255.55 760.3 256.04 758.9 256.59C757.021 257.327 755.191 258.182 753.42 259.15C752.16 259.84 750.93 260.59 749.74 261.39C745.118 264.457 741.059 268.296 737.74 272.74H506.91C504.573 272.74 502.332 271.812 500.68 270.16C499.028 268.507 498.1 266.267 498.1 263.93C498.1 261.593 499.028 259.353 500.68 257.7C502.332 256.048 504.573 255.12 506.91 255.12H763.2Z" fill="#6285B7"/>
<path d="M461.239 852.13L471.239 670.72C471.767 661.564 468.636 652.573 462.536 645.725C456.436 638.876 447.865 634.731 438.709 634.2L437.789 634.15C428.634 633.623 419.645 636.754 412.798 642.854C405.951 648.955 401.808 657.525 401.279 666.68L391.279 848.1C391.239 848.794 391.337 849.489 391.567 850.144C391.797 850.8 392.155 851.403 392.62 851.92C393.085 852.436 393.648 852.855 394.276 853.152C394.904 853.449 395.585 853.618 396.279 853.65L455.729 857.09C457.116 857.156 458.472 856.671 459.504 855.743C460.536 854.814 461.159 853.516 461.239 852.13Z" fill="#015D76"/>
<path d="M451.097 850.2L450.304 875.287L399.139 873.67L399.932 848.583L451.097 850.2Z" fill="#015D76"/>
<path d="M442.321 634.571L569.711 640.756C573.396 640.935 576.86 642.569 579.342 645.298C581.824 648.028 583.122 651.63 582.951 655.316L582.378 667.102C581.758 679.886 576.084 691.9 566.605 700.501C557.126 709.102 544.619 713.585 531.835 712.964L438.744 708.444C428.943 707.968 419.732 703.618 413.138 696.351C406.544 689.084 403.106 679.494 403.582 669.693C404.058 659.892 408.408 650.681 415.676 644.086C422.943 637.492 432.532 634.055 442.333 634.531L442.321 634.571Z" fill="#015D76"/>
<path d="M428.399 879.73L378.059 882.48C377.83 879.147 378.266 875.803 379.341 872.64C380.416 869.477 382.109 866.56 384.321 864.057C386.533 861.554 389.22 859.516 392.227 858.061C395.234 856.606 398.5 855.762 401.835 855.58C405.17 855.398 408.509 855.88 411.656 856.999C414.803 858.119 417.697 859.852 420.168 862.099C422.64 864.346 424.64 867.062 426.053 870.088C427.466 873.115 428.264 876.392 428.399 879.73Z" fill="#015D76"/>
<path d="M372.999 888.63L372.909 880.9C372.895 879.289 373.493 877.732 374.583 876.546C375.673 875.36 377.173 874.632 378.779 874.51L444.939 869.65C446.017 869.571 447.099 869.713 448.119 870.068C449.139 870.423 450.076 870.983 450.871 871.714C451.667 872.445 452.304 873.331 452.744 874.317C453.184 875.304 453.417 876.37 453.429 877.45L453.589 891.76L372.999 888.63Z" fill="#015D76"/>
<path d="M453.51 887.5L453.56 892.14C453.573 893.558 453.024 894.924 452.032 895.938C451.041 896.952 449.688 897.532 448.27 897.55L376.68 898.34C374.361 898.364 372.127 897.466 370.469 895.844C368.812 894.223 367.866 892.009 367.84 889.69C367.825 888.541 368.037 887.4 368.465 886.332C368.892 885.265 369.525 884.293 370.329 883.47C371.132 882.648 372.09 881.993 373.147 881.542C374.204 881.09 375.34 880.852 376.49 880.84L396.54 880.62C398.53 880.599 400.447 881.368 401.87 882.759C403.293 884.151 404.106 886.05 404.13 888.04L453.51 887.5Z" fill="#015D76"/>
<path d="M465.039 531.801C451.272 529.509 438.254 538.812 435.962 552.579C433.671 566.346 442.974 579.364 456.741 581.655L544.474 596.258C558.24 598.549 571.258 589.247 573.55 575.48C575.841 561.713 566.538 548.695 552.772 546.404L465.039 531.801Z" fill="#F9A0B4"/>
<path d="M452.336 581.96C470.121 581.37 484.151 569.222 483.674 554.826C483.196 540.431 468.391 529.239 450.607 529.829C432.822 530.419 418.791 542.567 419.269 556.963C419.747 571.358 434.551 582.55 452.336 581.96Z" fill="#F9A0B4"/>
<path d="M471.06 532.37C472.758 533.274 474.027 534.815 474.589 536.654C475.152 538.494 474.961 540.481 474.06 542.18C473.156 543.877 471.615 545.147 469.776 545.709C467.936 546.272 465.949 546.081 464.25 545.18L444.33 534.54C443.489 534.094 442.744 533.487 442.138 532.753C441.532 532.019 441.076 531.172 440.798 530.262C440.519 529.352 440.423 528.396 440.514 527.448C440.605 526.5 440.883 525.58 441.33 524.74C441.776 523.899 442.383 523.154 443.117 522.548C443.851 521.942 444.698 521.486 445.608 521.208C446.518 520.929 447.474 520.833 448.422 520.924C449.37 521.015 450.29 521.293 451.13 521.74" fill="#F9A0B4"/>
<path d="M545.49 393.7C557.784 393.7 567.75 383.734 567.75 371.44C567.75 359.146 557.784 349.18 545.49 349.18C533.197 349.18 523.23 359.146 523.23 371.44C523.23 383.734 533.197 393.7 545.49 393.7Z" fill="#4F182E"/>
<path d="M543.56 393.61C543.05 393.61 542.56 393.5 542.01 393.42C536.175 392.492 530.948 389.284 527.479 384.501C524.009 379.719 522.582 373.755 523.51 367.92C524.438 362.085 527.647 356.858 532.429 353.389C537.211 349.919 543.175 348.492 549.01 349.42C549.53 349.5 550.01 349.6 550.53 349.72C544.924 349.245 539.347 350.91 534.919 354.381C530.491 357.851 527.541 362.87 526.663 368.426C525.785 373.983 527.044 379.667 530.186 384.333C533.328 389 538.121 392.304 543.6 393.58L543.56 393.61Z" fill="#622F2B"/>
<path d="M570.55 375.4C569.628 381.231 566.428 386.456 561.653 389.927C556.879 393.398 550.921 394.831 545.09 393.91C544.57 393.83 544.06 393.73 543.56 393.61C538.081 392.334 533.288 389.03 530.146 384.363C527.004 379.697 525.745 374.013 526.623 368.456C527.501 362.9 530.451 357.881 534.879 354.411C539.307 350.94 544.884 349.275 550.49 349.75C551.01 349.75 551.49 349.86 552.04 349.94C557.871 350.862 563.096 354.062 566.567 358.837C570.039 363.611 571.471 369.569 570.55 375.4Z" fill="#512522"/>
<path d="M617.34 473.1L558.96 483.4L551.8 442.84L548.03 421.44L606.41 411.14L609.22 427.07L617.34 473.1Z" fill="#FFB2BF"/>
<path d="M609.436 437.704L557.18 452.896C554.475 453.682 552.92 456.512 553.706 459.217L560.249 481.725C561.036 484.429 563.866 485.984 566.57 485.198L618.827 470.006C621.532 469.22 623.087 466.39 622.3 463.685L615.757 441.177C614.971 438.473 612.141 436.917 609.436 437.704Z" fill="#FFF2EE"/>
<path d="M553.959 540.472L666.28 546.063L660.043 671.348L547.722 665.756L553.959 540.472Z" fill="#FFF2EE"/>
<path d="M667.907 533.712C669.986 491.95 638.653 456.452 597.923 454.424C557.193 452.397 522.489 484.608 520.41 526.369C518.331 568.131 549.664 603.629 590.394 605.657C631.124 607.685 665.828 575.474 667.907 533.712Z" fill="#FFF2EE"/>
<path d="M594.3 605.78C593.01 605.78 591.72 605.78 590.42 605.69C549.69 603.69 518.36 568.16 520.42 526.4C522.48 484.64 557.2 452.4 597.93 454.45C599.17 454.51 600.4 454.6 601.62 454.73C562.62 454.86 530.01 486.34 528 526.73C525.99 567.12 555.39 601.86 594.3 605.78Z" fill="white"/>
<path d="M660.32 670.94C660.031 677.407 658.46 683.752 655.7 689.607C652.94 695.463 649.044 700.712 644.24 705.05C636.016 712.522 625.35 716.742 614.24 716.92H613.73C612.94 716.92 612.16 716.92 611.36 716.92L521.31 712.54C516.591 712.309 511.966 711.127 507.715 709.065C503.464 707.003 499.673 704.103 496.57 700.54C492.193 695.532 489.234 689.445 488 682.91C487.461 680.107 487.24 677.252 487.34 674.4C488.04 653.76 505.6 637.68 525.56 638.66L661.56 645.27L660.32 670.94Z" fill="#007391"/>
<path d="M547.62 697L546.43 698.31L532.92 713.09L463.92 788.63L400.18 858.39C399.502 859.132 398.685 859.734 397.775 860.16C396.865 860.586 395.88 860.829 394.877 860.874C393.873 860.92 392.87 860.767 391.925 860.425C390.98 860.083 390.112 859.558 389.37 858.88L348.93 821.88C348.188 821.203 347.587 820.387 347.161 819.478C346.735 818.569 346.492 817.585 346.446 816.582C346.401 815.578 346.553 814.576 346.896 813.632C347.238 812.688 347.762 811.821 348.44 811.08L373 784.18L469.9 678.18L495.9 649.76C502.164 642.901 510.897 638.812 520.176 638.392C529.455 637.972 538.521 641.256 545.38 647.52C552.238 653.784 556.328 662.517 556.748 671.796C557.168 681.075 553.884 690.141 547.62 697Z" fill="#007391"/>
<path d="M388.212 857.813L366.302 881.79L328.129 846.909L350.039 822.931L388.212 857.813Z" fill="#FFB2BF"/>
<path d="M388.224 857.816L381.026 865.692L342.853 830.811L350.05 822.934L388.224 857.816Z" fill="#F9A0B4"/>
<path d="M619.52 544.74C640.744 544.74 657.95 527.534 657.95 506.31C657.95 485.086 640.744 467.88 619.52 467.88C598.296 467.88 581.09 485.086 581.09 506.31C581.09 527.534 598.296 544.74 619.52 544.74Z" fill="#F9CABD"/>
<path d="M649.758 505.884C648.706 490.007 634.983 477.989 619.106 479.041C603.23 480.093 591.212 493.816 592.264 509.693L598.023 596.632C599.075 612.509 612.798 624.526 628.674 623.475C644.551 622.423 656.569 608.7 655.517 592.823L649.758 505.884Z" fill="#329DA3"/>
<path d="M624.88 624.57C642.879 624.57 657.47 609.979 657.47 591.98C657.47 573.981 642.879 559.39 624.88 559.39C606.881 559.39 592.29 573.981 592.29 591.98C592.29 609.979 606.881 624.57 624.88 624.57Z" fill="#F9CABD"/>
<path d="M625.551 621.618C639.498 622.124 651.215 611.229 651.721 597.282C652.228 583.335 641.332 571.618 627.385 571.111L538.504 567.883C524.557 567.377 512.84 578.272 512.333 592.219C511.827 606.166 522.723 617.883 536.67 618.39L625.551 621.618Z" fill="#FFB2BF"/>
<path d="M532.407 619.222C549.969 616.356 562.325 602.508 560.005 588.293C557.684 574.077 541.567 564.877 524.004 567.743C506.442 570.61 494.086 584.458 496.406 598.673C498.726 612.889 514.844 622.089 532.407 619.222Z" fill="#FFB2BF"/>
<path d="M524.017 613.009C527.985 612.471 530.766 608.821 530.228 604.856C529.691 600.891 526.038 598.112 522.071 598.65L499.695 601.683C495.727 602.221 492.947 605.872 493.484 609.837C494.022 613.802 497.674 616.58 501.642 616.042L524.017 613.009Z" fill="#FFB2BF"/>
<path d="M509.7 601.193C513.668 600.656 516.449 597.006 515.912 593.041C515.376 589.075 511.724 586.297 507.756 586.834L485.38 589.863C481.412 590.4 478.631 594.05 479.168 598.015C479.704 601.98 483.356 604.759 487.324 604.222L509.7 601.193Z" fill="#FFB2BF"/>
<path d="M519.5 585.344C523.468 584.806 526.249 581.156 525.712 577.191C525.174 573.226 521.522 570.448 517.554 570.985L495.179 574.019C491.211 574.556 488.43 578.207 488.968 582.172C489.505 586.137 493.157 588.915 497.125 588.377L519.5 585.344Z" fill="#FFB2BF"/>
<path d="M539.452 581.264C543.197 582.681 547.381 580.797 548.797 577.054C550.213 573.312 548.326 569.129 544.581 567.712L523.463 559.72C519.718 558.302 515.534 560.187 514.117 563.929C512.701 567.672 514.589 571.854 518.334 573.272L539.452 581.264Z" fill="#FFB2BF"/>
<path d="M614.178 604.75L614.178 604.74C614.36 599.74 610.453 595.539 605.453 595.358L569.586 594.055C564.586 593.873 560.385 597.78 560.204 602.78L560.203 602.79C560.022 607.791 563.928 611.991 568.928 612.173L604.795 613.476C609.795 613.657 613.996 609.751 614.178 604.75Z" fill="#FDC3CD"/>
<path d="M609.22 427.07C605.074 432.899 599.556 437.617 593.153 440.807C586.75 443.997 579.66 445.561 572.51 445.36L561.67 445.06C558.266 444.973 554.913 444.219 551.8 442.84L548 421.44L606.38 411.14L609.22 427.07Z" fill="#F9A0B4"/>
<path d="M556.888 340.902L591.965 341.864C595.079 341.949 598.145 342.647 600.989 343.917C603.834 345.188 606.4 347.006 608.541 349.268C610.682 351.53 612.357 354.192 613.47 357.101C614.583 360.011 615.112 363.111 615.026 366.224L614.136 398.692C613.82 410.246 608.926 421.201 600.533 429.147C592.139 437.093 580.932 441.379 569.379 441.062L558.533 440.765C551.591 440.574 545.008 437.637 540.231 432.598C535.453 427.558 532.87 420.828 533.05 413.886L534.468 362.126C534.547 359.26 535.189 356.438 536.358 353.82C537.527 351.203 539.201 348.841 541.283 346.871C543.365 344.9 545.814 343.358 548.492 342.334C551.169 341.31 554.023 340.824 556.888 340.902Z" fill="#FFB2BF"/>
<path d="M600.1 343.54C598.926 343.338 597.74 343.218 596.55 343.18L561.48 342.18C555.693 342.024 550.08 344.171 545.875 348.15C541.669 352.128 539.214 357.613 539.05 363.4L537.63 415.12C537.483 420.504 538.996 425.802 541.964 430.296C544.932 434.79 549.211 438.261 554.22 440.24C548.135 439.048 542.67 435.737 538.796 430.896C534.922 426.055 532.89 419.998 533.06 413.8L534.47 362.08C534.642 356.299 537.101 350.823 541.306 346.852C545.51 342.882 551.119 340.741 556.9 340.9L591.97 341.9C594.755 341.962 597.508 342.517 600.1 343.54Z" fill="#FDC3CD"/>
<path d="M564.349 394.216L563.479 394.192C546.547 393.728 532.444 407.078 531.98 424.011L531.614 437.356C531.15 454.288 544.5 468.39 561.432 468.854L562.302 468.878C579.234 469.342 593.337 455.992 593.801 439.06L594.167 425.715C594.631 408.783 581.281 394.68 564.349 394.216Z" fill="#622F2B"/>
<path d="M556.981 394.214L556.112 394.191C539.179 393.726 525.077 407.076 524.613 424.009L524.247 437.354C523.783 454.286 537.133 468.388 554.065 468.852L554.935 468.876C571.867 469.34 585.97 455.99 586.434 439.058L586.799 425.713C587.264 408.781 573.914 394.678 556.981 394.214Z" fill="#622F2B"/>
<path d="M557.78 468.82C556.84 468.89 555.89 468.9 554.94 468.88H554.07C545.939 468.655 538.23 465.21 532.638 459.304C527.046 453.397 524.029 445.511 524.25 437.38L524.62 424.04C524.73 420.014 525.632 416.048 527.274 412.371C528.917 408.693 531.268 405.375 534.193 402.606C537.118 399.837 540.56 397.671 544.322 396.232C548.084 394.793 552.093 394.11 556.12 394.22H556.99H557.69C550.055 394.711 542.879 398.038 537.571 403.548C532.263 409.057 529.206 416.352 529 424L528.64 437.34C528.415 445.356 531.34 453.14 536.788 459.025C542.235 464.909 549.771 468.426 557.78 468.82Z" fill="#774340"/>
<path d="M599.017 356.921L615.541 357.374C617.545 357.429 619.446 358.278 620.824 359.734C622.202 361.19 622.946 363.134 622.891 365.138L622.118 393.328C622.059 395.51 621.135 397.579 619.549 399.079C617.964 400.58 615.848 401.389 613.666 401.329L613.606 401.328C609.415 401.213 605.44 399.438 602.558 396.392C599.675 393.347 598.12 389.282 598.235 385.09L599.008 356.901L599.017 356.921Z" fill="#622F2B"/>
<path d="M611.73 404.31C619.313 404.31 625.46 398.163 625.46 390.58C625.46 382.997 619.313 376.85 611.73 376.85C604.147 376.85 598 382.997 598 390.58C598 398.163 604.147 404.31 611.73 404.31Z" fill="#FFB2BF"/>
<path d="M600.68 329.368L549.179 327.956C537.149 327.627 527.13 337.112 526.8 349.141L526.8 349.151C526.47 361.181 535.955 371.2 547.985 371.53L599.486 372.942C611.515 373.271 621.535 363.787 621.864 351.757L621.865 351.747C622.194 339.717 612.71 329.698 600.68 329.368Z" fill="#622F2B"/>
<path d="M590.268 337.706L559.13 336.852C551.854 336.653 545.793 342.388 545.594 349.661C545.395 356.935 551.132 362.993 558.408 363.193L589.546 364.046C596.823 364.245 602.883 358.511 603.083 351.237C603.282 343.963 597.545 337.905 590.268 337.706Z" fill="#774340"/>
<path d="M614.24 334.59C612.172 333.892 610.012 333.507 607.83 333.45L556.34 332C553.479 331.926 550.631 332.416 547.959 333.443C545.288 334.47 542.844 336.013 540.77 337.985C538.695 339.956 537.029 342.318 535.868 344.934C534.706 347.549 534.071 350.369 534 353.23V353.84C534 356.98 534.68 360.083 535.991 362.937C537.303 365.79 539.216 368.325 541.6 370.37C537.294 368.905 533.554 366.128 530.906 362.431C528.257 358.733 526.832 354.299 526.83 349.75C526.83 349.55 526.83 349.34 526.83 349.14C527.003 343.377 529.451 337.917 533.64 333.955C537.829 329.993 543.416 327.852 549.18 328L600.67 329.41C605.653 329.531 610.444 331.359 614.24 334.59Z" fill="#774340"/>
<path d="M552.54 402.71C552.527 405.122 553.469 407.44 555.16 409.16C555.37 409.37 555.59 409.56 555.81 409.75C557.428 411.107 559.469 411.857 561.58 411.87H562C564.284 411.886 566.49 411.043 568.18 409.507C569.87 407.971 570.919 405.855 571.12 403.58C571.12 403.333 571.12 403.083 571.12 402.83C571.124 402.599 571.082 402.369 570.996 402.155C570.91 401.94 570.782 401.745 570.62 401.58C570.288 401.248 569.84 401.058 569.37 401.05L554.37 400.96C554.134 400.951 553.899 400.989 553.677 401.072C553.456 401.156 553.255 401.283 553.084 401.447C552.913 401.61 552.777 401.806 552.683 402.023C552.59 402.24 552.541 402.474 552.54 402.71Z" fill="#962F4A"/>
<path d="M561.77 410.47C561.767 410.94 561.81 411.409 561.9 411.87H562C564.282 411.882 566.485 411.036 568.174 409.501C569.863 407.966 570.914 405.853 571.12 403.58C570.471 403.385 569.797 403.284 569.12 403.28C568.164 403.265 567.215 403.44 566.327 403.795C565.439 404.149 564.63 404.675 563.947 405.344C563.263 406.012 562.719 406.809 562.346 407.689C561.972 408.569 561.776 409.514 561.77 410.47Z" fill="#E1617F"/>
<path d="M554.65 401C554.71 402.78 557.45 404.23 560.84 404.25C564.23 404.27 566.98 402.86 567.06 401.08L554.65 401Z" fill="white"/>
<path d="M565.08 411.33C564.02 410.75 562.838 410.432 561.63 410.403C560.423 410.373 559.226 410.633 558.14 411.16C559.23 411.617 560.398 411.858 561.58 411.87H562C563.05 411.871 564.092 411.688 565.08 411.33Z" fill="white"/>
<path d="M575 392.82C576.723 392.82 578.12 391.423 578.12 389.7C578.12 387.977 576.723 386.58 575 386.58C573.277 386.58 571.88 387.977 571.88 389.7C571.88 391.423 573.277 392.82 575 392.82Z" fill="#592702"/>
<path d="M545.57 392.05C547.293 392.05 548.69 390.653 548.69 388.93C548.69 387.207 547.293 385.81 545.57 385.81C543.847 385.81 542.45 387.207 542.45 388.93C542.45 390.653 543.847 392.05 545.57 392.05Z" fill="#592702"/>
<path d="M348 871.72L308.13 840.85C310.157 838.232 312.68 836.039 315.554 834.396C318.429 832.753 321.598 831.693 324.883 831.275C328.167 830.857 331.502 831.09 334.696 831.961C337.89 832.832 340.882 834.323 343.5 836.35C346.118 838.377 348.311 840.9 349.954 843.774C351.597 846.649 352.657 849.819 353.075 853.103C353.493 856.387 353.26 859.722 352.389 862.916C351.518 866.111 350.027 869.102 348 871.72Z" fill="#007391"/>
<path d="M300.2 842.16L305.2 836.26C306.242 835.031 307.712 834.244 309.313 834.058C310.913 833.872 312.525 834.302 313.82 835.26L367 874.89C367.868 875.535 368.594 876.35 369.134 877.287C369.675 878.223 370.017 879.26 370.141 880.334C370.265 881.408 370.167 882.496 369.854 883.531C369.541 884.565 369.019 885.525 368.32 886.35L359.08 897.27L300.2 842.16Z" fill="#FFF2EE"/>
<path d="M361.85 894L358.85 897.52C357.928 898.608 356.611 899.286 355.19 899.404C353.769 899.522 352.358 899.071 351.27 898.15L296.64 851.92C294.875 850.416 293.779 848.273 293.591 845.962C293.404 843.65 294.14 841.359 295.64 839.59C297.142 837.823 299.285 836.725 301.598 836.538C303.91 836.35 306.202 837.088 307.97 838.59L323.27 851.54C324.023 852.176 324.643 852.955 325.095 853.831C325.547 854.708 325.822 855.665 325.904 856.647C325.985 857.63 325.873 858.619 325.572 859.558C325.271 860.497 324.787 861.368 324.15 862.12L361.85 894Z" fill="#007391"/>
<path d="M616.83 390.8C616.853 392.08 616.499 393.339 615.81 394.419C615.122 395.498 614.131 396.351 612.96 396.87C612.678 396.983 612.373 397.024 612.072 396.992C611.77 396.96 611.481 396.854 611.23 396.685C610.978 396.515 610.772 396.287 610.629 396.019C610.486 395.752 610.411 395.453 610.41 395.15L610.26 386.69C610.255 386.373 610.33 386.059 610.479 385.779C610.628 385.499 610.845 385.261 611.111 385.087C611.376 384.913 611.681 384.81 611.998 384.786C612.314 384.762 612.631 384.818 612.92 384.95C614.064 385.447 615.042 386.263 615.735 387.3C616.428 388.338 616.808 389.552 616.83 390.8Z" fill="#F9A0B4"/>
<path d="M514.748 636.754L501.679 636.585L501.711 634.085C501.726 632.947 502.192 631.862 503.007 631.068C503.822 630.274 504.919 629.836 506.056 629.851L510.496 629.908C511.634 629.923 512.719 630.389 513.513 631.204C514.307 632.019 514.745 633.115 514.73 634.253L514.698 636.753L514.748 636.754Z" fill="#D7E2FF"/>
<path d="M527.811 636.915L514.742 636.746L514.774 634.246C514.789 633.108 515.255 632.023 516.07 631.229C516.885 630.435 517.982 629.997 519.119 630.012L523.629 630.07C524.767 630.085 525.852 630.551 526.646 631.366C527.44 632.181 527.878 633.278 527.863 634.415L527.831 636.915L527.811 636.915Z" fill="#D7E2FF"/>
<path d="M540.874 637.086L527.805 636.917L527.837 634.417C527.852 633.28 528.318 632.194 529.133 631.4C529.948 630.606 531.045 630.168 532.182 630.183L536.662 630.241C537.8 630.256 538.885 630.722 539.679 631.537C540.473 632.351 540.911 633.448 540.896 634.586L540.864 637.086L540.874 637.086Z" fill="#D7E2FF"/>
<path d="M553.947 637.257L540.878 637.088L540.911 634.589C540.925 633.451 541.391 632.366 542.206 631.572C543.021 630.778 544.118 630.34 545.256 630.354L549.735 630.412C550.873 630.427 551.958 630.893 552.752 631.708C553.546 632.523 553.984 633.62 553.97 634.757L553.937 637.257L553.947 637.257Z" fill="#D7E2FF"/>
<path d="M567.011 637.418L553.952 637.25L553.984 634.75C553.999 633.612 554.465 632.527 555.28 631.733C556.095 630.939 557.191 630.501 558.329 630.516L562.809 630.574C563.946 630.588 565.032 631.054 565.826 631.869C566.62 632.684 567.058 633.781 567.043 634.919L567.011 637.418Z" fill="#D7E2FF"/>
<path d="M580.094 637.59L567.025 637.421L567.057 634.921C567.072 633.783 567.538 632.698 568.353 631.904C569.168 631.11 570.264 630.672 571.402 630.687L575.882 630.745C577.019 630.759 578.105 631.225 578.899 632.04C579.693 632.855 580.131 633.952 580.116 635.09L580.084 637.59L580.094 637.59Z" fill="#D7E2FF"/>
<path d="M593.147 637.751L580.079 637.582L580.111 635.082C580.126 633.945 580.592 632.859 581.406 632.065C582.221 631.271 583.318 630.833 584.456 630.848L588.936 630.906C590.073 630.921 591.158 631.387 591.953 632.201C592.747 633.016 593.184 634.113 593.17 635.251L593.137 637.751L593.147 637.751Z" fill="#D7E2FF"/>
<path d="M466.581 643.097L605.109 644.887C608.047 644.925 610.459 642.574 610.497 639.636L610.498 639.626C610.535 636.688 608.185 634.275 605.247 634.238L466.718 632.448C463.78 632.41 461.368 634.761 461.33 637.699L461.33 637.709C461.292 640.647 463.643 643.059 466.581 643.097Z" fill="#64617F"/>
<path d="M502.31 643.61L377.85 642C375.314 641.967 372.862 641.088 370.882 639.503C368.902 637.918 367.508 635.717 366.92 633.25L343.92 536.56C343.524 534.876 343.516 533.124 343.898 531.437C344.279 529.75 345.04 528.172 346.122 526.822C347.205 525.473 348.58 524.388 350.145 523.649C351.709 522.911 353.421 522.538 355.15 522.56L465 524C467.536 524.033 469.989 524.912 471.969 526.497C473.949 528.082 475.343 530.283 475.93 532.75L502.31 643.61Z" fill="#7D7BA3"/>
<path d="M343.9 536.58L366.9 633.26C367.49 635.729 368.888 637.929 370.872 639.513C372.856 641.096 375.312 641.972 377.85 642L502.31 643.6L499.77 632.91L401.43 631.65C398.894 631.617 396.442 630.738 394.462 629.153C392.482 627.568 391.088 625.367 390.5 622.9L367.5 526.22C367.226 525.068 367.131 523.881 367.22 522.7L355.15 522.54C353.415 522.516 351.697 522.888 350.128 523.628C348.558 524.368 347.179 525.456 346.094 526.81C345.008 528.165 344.247 529.748 343.867 531.441C343.487 533.135 343.498 534.892 343.9 536.58Z" fill="#64617F"/>
<path d="M415.36 592.32C418.801 592.32 421.59 589.531 421.59 586.09C421.59 582.649 418.801 579.86 415.36 579.86C411.919 579.86 409.13 582.649 409.13 586.09C409.13 589.531 411.919 592.32 415.36 592.32Z" fill="#D7E2FF"/>
<path d="M406.9 595.31C407.865 596.858 409.164 598.171 410.703 599.151C412.241 600.131 413.98 600.754 415.791 600.974C417.602 601.194 419.439 601.006 421.167 600.422C422.896 599.839 424.471 598.876 425.779 597.604C427.086 596.332 428.092 594.783 428.722 593.071C429.352 591.359 429.591 589.528 429.42 587.711C429.249 585.895 428.674 584.14 427.736 582.576C426.798 581.011 425.522 579.676 424 578.67C425.466 581.033 426.081 583.826 425.743 586.587C425.405 589.347 424.136 591.91 422.144 593.85C420.152 595.791 417.557 596.993 414.789 597.259C412.021 597.524 409.245 596.837 406.92 595.31H406.9Z" fill="#D7E2FF"/>
<path d="M571.078 213.35L561.768 209.513C557.241 207.647 553.641 204.06 551.76 199.54C549.878 195.02 549.869 189.937 551.735 185.411L561.045 189.248C565.572 191.114 569.172 194.701 571.053 199.221C572.935 203.741 572.943 208.823 571.078 213.35Z" fill="#6E8EC8"/>
<path d="M603.32 222.07C603.32 230.831 599.84 239.234 593.644 245.429C587.449 251.625 579.046 255.105 570.285 255.105C561.524 255.105 553.121 251.625 546.926 245.429C540.731 239.234 537.25 230.831 537.25 222.07C537.248 220.797 537.321 219.524 537.47 218.26C537.636 216.804 537.9 215.361 538.26 213.94H602.32C602.682 215.36 602.942 216.803 603.1 218.26C603.254 219.524 603.328 220.797 603.32 222.07Z" fill="#6E8EC8"/>
<path d="M604.6 205.3H537.51C535.125 205.3 533.19 207.234 533.19 209.62V209.63C533.19 212.016 535.125 213.95 537.51 213.95H604.6C606.986 213.95 608.92 212.016 608.92 209.63V209.62C608.92 207.234 606.986 205.3 604.6 205.3Z" fill="#6285B7"/>
<path d="M603.1 218.26H537.47C537.636 216.804 537.9 215.361 538.26 213.94H602.32C602.682 215.36 602.942 216.803 603.1 218.26Z" fill="#4575AF"/>
<path d="M733.474 222.441L726.198 219.442C724.445 218.72 722.851 217.659 721.508 216.32C720.164 214.982 719.098 213.392 718.369 211.641C717.64 209.89 717.264 208.013 717.26 206.117C717.257 204.221 717.627 202.342 718.35 200.589L725.626 203.588C729.167 205.047 731.983 207.854 733.455 211.389C734.926 214.925 734.933 218.9 733.474 222.441Z" fill="#6E8EC8"/>
<path d="M758.71 229.27C758.577 236.037 755.795 242.481 750.963 247.219C746.13 251.957 739.633 254.612 732.865 254.612C726.097 254.612 719.599 251.957 714.767 247.219C709.934 242.481 707.153 236.037 707.02 229.27C707.015 228.267 707.072 227.266 707.19 226.27C707.314 225.13 707.522 224 707.81 222.89H757.92C758.446 224.969 758.712 227.105 758.71 229.25V229.27Z" fill="#6E8EC8"/>
<path d="M759.7 216.14H707.22C705.353 216.14 703.84 217.653 703.84 219.52C703.84 221.387 705.353 222.9 707.22 222.9H759.7C761.567 222.9 763.08 221.387 763.08 219.52C763.08 217.653 761.567 216.14 759.7 216.14Z" fill="#6285B7"/>
<path d="M758.54 226.29H707.19C707.315 225.15 707.522 224.02 707.81 222.91H757.92C758.199 224.022 758.406 225.151 758.54 226.29Z" fill="#4575AF"/>
<path d="M637.5 133.58H653.17C655.501 133.58 657.737 134.506 659.385 136.155C661.034 137.803 661.96 140.039 661.96 142.37V255.11H628.71V142.36C628.713 140.03 629.64 137.797 631.288 136.151C632.936 134.505 635.17 133.58 637.5 133.58Z" fill="#6E8EC8"/>
<path d="M645.33 205.06C651.251 205.06 656.05 200.26 656.05 194.34C656.05 188.42 651.251 183.62 645.33 183.62C639.41 183.62 634.61 188.42 634.61 194.34C634.61 200.26 639.41 205.06 645.33 205.06Z" fill="#4575AF"/>
<path d="M645.33 202.08C644.93 202.149 644.526 202.182 644.12 202.18C642.043 202.18 640.052 201.355 638.583 199.887C637.115 198.418 636.29 196.427 636.29 194.35C636.29 192.273 637.115 190.282 638.583 188.813C640.052 187.345 642.043 186.52 644.12 186.52C644.525 186.519 644.93 186.549 645.33 186.61C643.487 186.9 641.808 187.838 640.595 189.256C639.382 190.675 638.716 192.479 638.716 194.345C638.716 196.211 639.382 198.015 640.595 199.434C641.808 200.852 643.487 201.79 645.33 202.08Z" fill="#6E8EC8"/>
<path d="M668.51 164.49H680.2C681.937 164.49 683.603 165.18 684.832 166.408C686.06 167.637 686.75 169.303 686.75 171.04V255.11H662V171C662.01 169.277 662.7 167.627 663.918 166.408C665.137 165.19 666.787 164.5 668.51 164.49Z" fill="#6285B7"/>
<path d="M674.35 217.8C678.768 217.8 682.35 214.218 682.35 209.8C682.35 205.382 678.768 201.8 674.35 201.8C669.931 201.8 666.35 205.382 666.35 209.8C666.35 214.218 669.931 217.8 674.35 217.8Z" fill="#6E8EC8"/>
<path d="M674.35 215.57C674.049 215.619 673.744 215.642 673.44 215.64C671.891 215.64 670.405 215.025 669.31 213.93C668.215 212.834 667.6 211.349 667.6 209.8C667.6 208.251 668.215 206.766 669.31 205.671C670.405 204.575 671.891 203.96 673.44 203.96C673.745 203.961 674.049 203.988 674.35 204.04C672.98 204.262 671.735 204.963 670.835 206.02C669.936 207.076 669.443 208.418 669.443 209.805C669.443 211.192 669.936 212.534 670.835 213.59C671.735 214.647 672.98 215.348 674.35 215.57Z" fill="#E9F1FF"/>
<path d="M305.34 887.2H293.34V206.65C293.562 187.853 301.185 169.902 314.556 156.689C327.927 143.475 345.967 136.065 364.765 136.065C383.563 136.065 401.603 143.475 414.974 156.689C428.344 169.902 435.967 187.853 436.19 206.65V284.91H424.19V206.65C423.987 191.023 417.637 176.105 406.515 165.126C395.392 154.147 380.393 147.991 364.765 147.991C349.137 147.991 334.137 154.147 323.015 165.126C311.893 176.105 305.543 191.023 305.34 206.65V887.2Z" fill="#34629B"/>
<path d="M431.52 370.62C451.877 370.62 468.38 354.117 468.38 333.76C468.38 313.403 451.877 296.9 431.52 296.9C411.163 296.9 394.66 313.403 394.66 333.76C394.66 354.117 411.163 370.62 431.52 370.62Z" fill="#BBD7FF"/>
<path d="M468.38 333.76C468.378 339.216 467.166 344.603 464.83 349.534C462.495 354.464 459.094 358.815 454.873 362.272C450.653 365.73 445.718 368.207 440.424 369.526C435.13 370.845 429.609 370.973 424.26 369.9C432.611 368.225 440.124 363.709 445.522 357.121C450.92 350.532 453.87 342.277 453.87 333.76C453.87 325.243 450.92 316.988 445.522 310.399C440.124 303.811 432.611 299.295 424.26 297.62C429.609 296.547 435.13 296.675 440.424 297.994C445.718 299.313 450.653 301.79 454.873 305.248C459.094 308.705 462.495 313.056 464.83 317.986C467.166 322.917 468.378 328.304 468.38 333.76Z" fill="#D4E6FC"/>
<path d="M508.53 333.76H351.85C351.85 279.76 386.94 236.06 430.19 236.06C473.44 236.06 508.53 279.79 508.53 333.76Z" fill="#547DBA"/>
<path d="M508.53 333.76H351.85C351.85 279.76 386.94 236.06 430.19 236.06C473.44 236.06 508.53 279.79 508.53 333.76Z" fill="#547DBA"/>
<path d="M508.52 333.76H482.15C482.15 285.41 453.99 245.26 417 237.45C421.335 236.523 425.757 236.057 430.19 236.06C473.46 236.06 508.52 279.8 508.52 333.76Z" fill="#34629B"/>
<path d="M369.14 878.02H229.54C224.47 878.02 220.36 882.13 220.36 887.2C220.36 892.27 224.47 896.38 229.54 896.38H369.14C374.21 896.38 378.32 892.27 378.32 887.2C378.32 882.13 374.21 878.02 369.14 878.02Z" fill="#547DBA"/>
<path d="M378.32 887.21C378.32 889.645 377.352 891.98 375.631 893.701C373.909 895.423 371.574 896.39 369.14 896.39H342.64C343.871 896.431 345.099 896.223 346.248 895.78C347.398 895.337 348.447 894.667 349.333 893.81C350.219 892.953 350.923 891.926 351.404 890.792C351.885 889.657 352.133 888.437 352.133 887.205C352.133 885.973 351.885 884.753 351.404 883.618C350.923 882.484 350.219 881.457 349.333 880.6C348.447 879.743 347.398 879.073 346.248 878.63C345.099 878.187 343.871 877.979 342.64 878.02H369.14C371.575 878.023 373.91 878.992 375.631 880.715C377.353 882.438 378.32 884.774 378.32 887.21Z" fill="#34629B"/>
<path d="M706 636.75V897.86H620.19V722.57C620.19 699.811 629.231 677.984 645.323 661.89C661.415 645.796 683.241 636.753 706 636.75Z" fill="#BBD7FF"/>
<path d="M706 636.75H922.4V884.09C922.4 887.745 920.948 891.25 918.364 893.834C915.78 896.418 912.275 897.87 908.62 897.87H706V636.75Z" fill="#34629B"/>
<path d="M670.97 718.48C670.97 712.808 666.375 708.21 660.705 708.21C655.036 708.21 650.44 712.808 650.44 718.48V851.06C650.44 856.732 655.036 861.33 660.705 861.33C666.375 861.33 670.97 856.732 670.97 851.06V718.48Z" fill="#D4E6FC"/>
</svg>